<svg width="40" height="40" viewBox="0 0 40 40" fill="none" xmlns="http://www.w3.org/2000/svg">
<rect x="1" y="1" width="38" height="38" rx="19" fill="white"/>
<rect x="1" y="1" width="38" height="38" rx="19" stroke="white" stroke-width="2"/>
<g clip-path="url(#clip0_3518_1230)">
<g clip-path="url(#clip1_3518_1230)">
<path d="M33.25 20C33.25 12.9589 27.5411 7.25 20.5 7.25C13.4589 7.25 7.75 12.9589 7.75 20C7.75 26.3633 12.4118 31.6383 18.508 32.5958V23.6864H15.2698V20H18.508V17.1904C18.508 13.9953 20.4121 12.2292 23.324 12.2292C24.7189 12.2292 26.1784 12.4784 26.1784 12.4784V15.6161H24.5701C22.9869 15.6161 22.492 16.5987 22.492 17.6081V20H26.0278L25.463 23.6864H22.492V32.5958C28.5882 31.6401 33.25 26.3651 33.25 20Z" fill="#1977F3"/>
<path d="M25.4627 23.6863L26.0275 19.9999H22.4917V17.608C22.4917 16.6003 22.9848 15.616 24.5698 15.616H26.1781V12.4782C26.1781 12.4782 24.7186 12.229 23.3237 12.229C20.4118 12.229 18.5077 13.9933 18.5077 17.1902V19.9999H15.2695V23.6863H18.5077V32.5957C19.1567 32.6979 19.8219 32.7499 20.4997 32.7499C21.1775 32.7499 21.8427 32.6961 22.4917 32.5957V23.6863H25.4627Z" fill="#FEFEFE"/>
</g>
</g>
<defs>
<clipPath id="clip0_3518_1230">
<rect x="5.5" y="5" width="30" height="30" rx="15" fill="white"/>
</clipPath>
<clipPath id="clip1_3518_1230">
<rect width="25.5" height="25.5" fill="white" transform="translate(7.75 7.25)"/>
</clipPath>
</defs>
</svg>
