<svg width="40" height="40" viewBox="0 0 40 40" fill="none" xmlns="http://www.w3.org/2000/svg">
<rect x="1" y="1" width="38" height="38" rx="19" fill="white"/>
<rect x="1" y="1" width="38" height="38" rx="19" stroke="white" stroke-width="2"/>
<g clip-path="url(#clip0_3518_1237)">
<path fill-rule="evenodd" clip-rule="evenodd" d="M11.7361 30.625H28.2639C29.5679 30.625 30.625 29.5679 30.625 28.2639V11.7361C30.625 10.4321 29.5679 9.375 28.2639 9.375H11.7361C10.4321 9.375 9.375 10.4321 9.375 11.7361V28.2639C9.375 29.5679 10.4321 30.625 11.7361 30.625Z" fill="#007EBB"/>
<path fill-rule="evenodd" clip-rule="evenodd" d="M27.6753 27.6734H24.522V22.3025C24.522 20.8299 23.9624 20.007 22.7969 20.007C21.529 20.007 20.8665 20.8634 20.8665 22.3025V27.6734H17.8275V17.4419H20.8665V18.8201C20.8665 18.8201 21.7803 17.1293 23.9514 17.1293C26.1216 17.1293 27.6753 18.4546 27.6753 21.1955V27.6734ZM14.2021 16.1022C13.1669 16.1022 12.3281 15.2568 12.3281 14.2142C12.3281 13.1716 13.1669 12.3262 14.2021 12.3262C15.2372 12.3262 16.0755 13.1716 16.0755 14.2142C16.0755 15.2568 15.2372 16.1022 14.2021 16.1022ZM12.6329 27.6734H15.8017V17.4419H12.6329V27.6734Z" fill="white"/>
</g>
<defs>
<clipPath id="clip0_3518_1237">
<rect width="21.25" height="21.25" fill="white" transform="translate(9.375 9.375)"/>
</clipPath>
</defs>
</svg>
