<svg width="40" height="40" viewBox="0 0 40 40" fill="none" xmlns="http://www.w3.org/2000/svg">
<g clip-path="url(#clip0_3518_1243)">
<rect width="40" height="40" rx="20" fill="white"/>
<g clip-path="url(#clip1_3518_1243)">
<path d="M16.3945 18.8407H17.4684V22.2139H16.3945V18.8407Z" fill="#E60023"/>
<mask id="mask0_3518_1243" style="mask-type:luminance" maskUnits="userSpaceOnUse" x="3" y="15" width="34" height="10">
<path d="M3 15.8459H37V24.1548H3V15.8459Z" fill="white"/>
</mask>
<g mask="url(#mask0_3518_1243)">
<path d="M17.6914 18.8407H18.7258V19.3019H18.7455C18.9959 18.9395 19.3187 18.7419 19.7865 18.7419C20.5243 18.7419 20.9592 19.2689 20.9592 20.02V22.2139H19.8853V20.2374C19.8853 19.8816 19.7074 19.6378 19.3582 19.6378C19.0025 19.6378 18.7653 19.9343 18.7653 20.3494V22.2139H17.6914V18.8407Z" fill="#E60023"/>
<path d="M17.5755 17.9384C17.5755 17.5826 17.287 17.2942 16.9313 17.2942C16.5755 17.2942 16.2871 17.5826 16.2871 17.9384C16.2871 18.2941 16.5755 18.5825 16.9313 18.5825C17.287 18.5825 17.5755 18.2941 17.5755 17.9384Z" fill="#E60023"/>
<path d="M28.5123 18.792C28.4817 18.7892 28.4465 18.788 28.4054 18.788C27.997 18.788 27.7203 18.9659 27.4831 19.3678H27.4633V18.8407H26.4355V22.2139H27.5094V20.6986C27.5094 19.9965 27.8982 19.6711 28.5123 19.7279V18.792Z" fill="#E60023"/>
<path d="M33.7836 20.0859C33.3554 20.0069 32.9733 19.9739 32.9733 19.7368C32.9733 19.5259 33.1775 19.4271 33.441 19.4271C33.7375 19.4271 33.9418 19.5193 33.9813 19.8224H34.9695C34.9168 19.157 34.4029 18.7419 33.4477 18.7419C32.6505 18.7419 31.9916 19.1109 31.9916 19.8224C31.9916 20.613 32.6175 20.7711 33.2039 20.8699C33.6519 20.949 34.0603 20.9819 34.0603 21.285C34.0603 21.5024 33.8561 21.621 33.5333 21.621C33.2094 21.621 32.9952 21.484 32.9295 21.2059H31.9062C31.9816 21.8994 32.5902 22.3193 33.5399 22.3193C34.4227 22.3193 35.0749 21.9372 35.0749 21.1994C35.0749 20.3363 34.3766 20.1847 33.7836 20.0859Z" fill="#E60023"/>
<path d="M30.1783 19.5059C30.5274 19.5059 30.7778 19.7628 30.8173 20.1648H29.4865C29.5589 19.7628 29.7698 19.5059 30.1783 19.5059ZM30.2376 21.5416C29.7961 21.5416 29.5458 21.2584 29.4799 20.8038H31.9044C31.911 20.1186 31.7133 19.5322 31.3114 19.1633C31.0215 18.8998 30.6394 18.7417 30.1585 18.7417C29.1307 18.7417 28.4258 19.5125 28.4258 20.5205C28.4258 21.5416 29.111 22.3125 30.2244 22.3125C30.6526 22.3125 30.9952 22.2005 31.2785 22.0028C31.575 21.7986 31.7726 21.5087 31.8451 21.2057H30.7975C30.7053 21.4165 30.5209 21.5416 30.2376 21.5416Z" fill="#E60023"/>
<path d="M36.9658 21.4185C36.916 21.4204 36.8492 21.4233 36.7878 21.4233C36.5572 21.4233 36.4123 21.3574 36.4123 21.0939V19.5127H36.9658V18.8407H36.4123V17.7734H35.3648V18.8407H35.0352V19.5127H35.3648V21.3245C35.3648 22.0492 35.8128 22.2534 36.4387 22.2534C36.6775 22.2534 36.858 22.2355 36.9658 22.2145V21.4185Z" fill="#E60023"/>
<path d="M22.8776 21.42C22.8348 21.4217 22.7853 21.4233 22.7392 21.4233C22.5086 21.4233 22.3636 21.3574 22.3636 21.0939V19.5127H22.8776V18.8407H22.3636V17.7734H21.3161V18.8407H20.9668V19.5127H21.3161V21.3245C21.3161 22.0492 21.7641 22.2534 22.39 22.2534C22.6018 22.2534 22.7676 22.2393 22.8776 22.2215V21.42Z" fill="#E60023"/>
<path d="M25.2177 20.1648C25.1782 19.7629 24.9278 19.5059 24.5786 19.5059C24.1702 19.5059 23.9593 19.7629 23.8869 20.1648H25.2177ZM22.8262 20.5205C22.8262 19.5125 23.5311 18.7417 24.5589 18.7417C25.0398 18.7417 25.4219 18.8998 25.7118 19.1633C26.1137 19.5323 26.3113 20.1186 26.3047 20.8038H23.8803C23.9461 21.2584 24.1965 21.5417 24.6379 21.5417C24.9212 21.5417 25.1057 21.4165 25.1979 21.2057H26.2454C26.173 21.5087 25.9753 21.7986 25.6788 22.0029C25.3956 22.2005 25.053 22.3125 24.6247 22.3125C23.5113 22.3125 22.8262 21.5417 22.8262 20.5205Z" fill="#E60023"/>
<path d="M14.5299 19.7169C14.9516 19.7169 15.1887 19.4666 15.1887 19.091C15.1887 18.7155 14.945 18.4849 14.5299 18.4849H13.7063V19.7169H14.5299ZM12.6191 17.5033H14.484C15.0571 17.5033 15.4788 17.6614 15.7687 17.9381C16.0718 18.2214 16.243 18.6233 16.243 19.0976C16.243 20.0002 15.6172 20.6393 14.6487 20.6393H13.7063V22.2139H12.6191V17.5033Z" fill="#E60023"/>
<path d="M11.1441 20.0002C11.1441 22.2394 9.32885 24.0547 7.08963 24.0547C4.85042 24.0547 3.03516 22.2394 3.03516 20.0002C3.03516 17.761 4.85042 15.9457 7.08963 15.9457C9.32885 15.9457 11.1441 17.761 11.1441 20.0002Z" fill="white"/>
<path d="M7.08963 15.9457C4.85042 15.9457 3.03516 17.761 3.03516 20.0002C3.03516 21.7179 4.10385 23.1863 5.61208 23.777C5.57665 23.4562 5.54461 22.9629 5.62614 22.6127C5.69982 22.2963 6.10157 20.5974 6.10157 20.5974C6.10157 20.5974 5.98029 20.3545 5.98029 19.9954C5.98029 19.4316 6.30707 19.0107 6.71394 19.0107C7.05985 19.0107 7.22693 19.2704 7.22693 19.5818C7.22693 19.9297 7.00545 20.4498 6.89115 20.9318C6.79563 21.3354 7.09352 21.6645 7.49155 21.6645C8.21216 21.6645 8.7661 20.9046 8.7661 19.8078C8.7661 18.837 8.06855 18.1583 7.07252 18.1583C5.91887 18.1583 5.24173 19.0236 5.24173 19.9178C5.24173 20.2663 5.37597 20.64 5.54348 20.8431C5.57661 20.8832 5.58147 20.9184 5.5716 20.9594C5.54082 21.0874 5.47242 21.3628 5.45899 21.4192C5.44131 21.4934 5.40023 21.5092 5.32339 21.4734C4.81702 21.2377 4.50041 20.4974 4.50041 19.9027C4.50041 18.6237 5.42968 17.4491 7.17937 17.4491C8.58586 17.4491 9.67888 18.4514 9.67888 19.7908C9.67888 21.1882 8.79784 22.3127 7.57497 22.3127C7.16411 22.3127 6.77788 22.0993 6.64567 21.8471C6.64567 21.8471 6.44237 22.6213 6.39308 22.811C6.30155 23.1631 6.05444 23.6046 5.88916 23.8739C6.26851 23.9913 6.67166 24.0547 7.08963 24.0547C9.32888 24.0547 11.1441 22.2394 11.1441 20.0002C11.1441 17.761 9.32888 15.9457 7.08963 15.9457Z" fill="#E60023"/>
</g>
</g>
</g>
<rect x="1" y="1" width="38" height="38" rx="19" stroke="white" stroke-width="2"/>
<defs>
<clipPath id="clip0_3518_1243">
<rect width="40" height="40" rx="20" fill="white"/>
</clipPath>
<clipPath id="clip1_3518_1243">
<rect width="34" height="8.3089" fill="white" transform="translate(3 15.8457)"/>
</clipPath>
</defs>
</svg>
