<svg width="40" height="40" viewBox="0 0 40 40" fill="none" xmlns="http://www.w3.org/2000/svg">
<g clip-path="url(#clip0_3518_1275)">
<rect width="40" height="40" rx="20" fill="white"/>
<g clip-path="url(#clip1_3518_1275)">
<path d="M33.5 18.854C33.5 16.9814 31.9819 15.4634 30.1093 15.4634C29.1715 15.4634 28.3242 15.8457 27.7106 16.4612C25.8145 15.2383 23.3921 14.459 20.7316 14.3374C20.7332 13.2078 21.2392 12.1548 22.1205 11.4478C23.0033 10.7396 24.1436 10.4744 25.248 10.7197L25.3997 10.7533C25.3982 10.7914 25.3939 10.8286 25.3939 10.867C25.3939 12.4302 26.6612 13.6974 28.2243 13.6974C29.7875 13.6974 31.0547 12.4302 31.0547 10.867C31.0547 9.30378 29.7875 8.03662 28.2243 8.03662C27.2192 8.03662 26.3387 8.56203 25.8365 9.35166L25.5653 9.2914C24.0253 8.94921 22.4358 9.31917 21.205 10.3065C19.9757 11.2927 19.2702 12.7617 19.2686 14.3374C16.6087 14.4589 14.1868 15.2379 12.2908 16.4602C11.6771 15.8446 10.8286 15.4633 9.89061 15.4633C8.01805 15.4634 6.5 16.9814 6.5 18.854C6.5 20.1587 7.23829 21.2891 8.31877 21.8559C8.23671 22.2756 8.19354 22.7048 8.19354 23.1416C8.19354 28.0136 13.4795 31.9631 20 31.9631C26.5205 31.9631 31.8064 28.0136 31.8064 23.1416C31.8064 22.705 31.7632 22.2761 31.6813 21.8565C32.7618 21.2896 33.5 20.1588 33.5 18.854ZM28.2243 9.49969C28.9783 9.49969 29.5917 10.1131 29.5917 10.8671C29.5917 11.621 28.9783 12.2344 28.2243 12.2344C27.4703 12.2344 26.857 11.621 26.857 10.8671C26.857 10.1131 27.4704 9.49969 28.2243 9.49969ZM7.96301 18.854C7.96301 17.7911 8.82772 16.9264 9.89061 16.9264C10.3458 16.9264 10.7637 17.0859 11.0934 17.351C10.0621 18.2357 9.26378 19.2757 8.76809 20.4175C8.28126 20.0679 7.96301 19.498 7.96301 18.854ZM27.4727 28.2073C25.494 29.6857 22.8401 30.5 20 30.5C17.16 30.5 14.5061 29.6857 12.5273 28.2073C10.6761 26.8241 9.65662 25.0251 9.65662 23.1416C9.65662 21.258 10.6761 19.459 12.5273 18.0759C14.5061 16.5974 17.16 15.7831 20 15.7831C22.8401 15.7831 25.494 16.5974 27.4727 18.0759C29.3239 19.459 30.3434 21.258 30.3434 23.1416C30.3434 25.0251 29.3239 26.8241 27.4727 28.2073ZM31.2315 20.4167C30.7357 19.275 29.9374 18.2353 28.9063 17.3508C29.236 17.0856 29.6541 16.9264 30.1094 16.9264C31.1723 16.9264 32.037 17.7911 32.037 18.854C32.0369 19.498 31.7183 20.0671 31.2315 20.4167Z" fill="#181A1C"/>
<path d="M15.6864 22.6257C16.539 22.6257 17.2302 21.9345 17.2302 21.0819C17.2302 20.2293 16.539 19.5381 15.6864 19.5381C14.8338 19.5381 14.1426 20.2293 14.1426 21.0819C14.1426 21.9345 14.8338 22.6257 15.6864 22.6257Z" fill="#D80000"/>
<path d="M24.3133 22.6257C25.166 22.6257 25.8572 21.9345 25.8572 21.0819C25.8572 20.2293 25.166 19.5381 24.3133 19.5381C23.4607 19.5381 22.7695 20.2293 22.7695 21.0819C22.7695 21.9345 23.4607 22.6257 24.3133 22.6257Z" fill="#D80000"/>
<path d="M23.659 24.8329C22.5707 25.8244 21.1599 26.3704 19.6864 26.3704C18.0319 26.3704 16.4989 25.7037 15.37 24.4929C15.0946 24.1974 14.6317 24.1813 14.3362 24.4568C14.0407 24.7323 14.0245 25.1952 14.3 25.4907C15.6883 26.9795 17.6516 27.8334 19.6865 27.8334C21.5254 27.8334 23.2861 27.1518 24.6443 25.9143C24.9429 25.6422 24.9645 25.1795 24.6924 24.8809C24.4204 24.5825 23.958 24.5607 23.659 24.8329Z" fill="#181A1C"/>
</g>
</g>
<rect x="1" y="1" width="38" height="38" rx="19" stroke="white" stroke-width="2"/>
<defs>
<clipPath id="clip0_3518_1275">
<rect width="40" height="40" rx="20" fill="white"/>
</clipPath>
<clipPath id="clip1_3518_1275">
<rect width="27" height="27" fill="white" transform="translate(6.5 6.5)"/>
</clipPath>
</defs>
</svg>
