<svg width="40" height="40" viewBox="0 0 40 40" fill="none" xmlns="http://www.w3.org/2000/svg">
<g clip-path="url(#clip0_3518_1294)">
<rect width="40" height="40" rx="20" fill="white"/>
<g clip-path="url(#clip1_3518_1294)">
<path d="M25.0451 15.1164C23.9898 14.4288 23.3505 13.2585 23.3505 12H20.6734L20.6682 22.709C20.6214 23.9467 19.5766 24.9146 18.3369 24.8653C17.0971 24.8186 16.1277 23.7755 16.177 22.5377C16.2238 21.3311 17.2167 20.3788 18.4252 20.3788C18.6514 20.3788 18.8749 20.4151 19.088 20.4826V17.7528C18.8671 17.7217 18.6462 17.7061 18.4252 17.7035C15.7092 17.7035 13.5 19.9091 13.5 22.6208C13.5052 25.335 15.7066 27.5354 18.4278 27.538C21.1439 27.538 23.3531 25.3324 23.3531 22.6208V17.1923C24.4369 17.9708 25.739 18.3911 27.0749 18.3885V15.7158C26.3524 15.7184 25.648 15.5082 25.0451 15.1164Z" fill="black"/>
<path d="M7.53906 26.5581H11.8509L11.4559 27.7907H10.3383V32.3446H8.94256V27.7881L7.53906 27.7907V26.5581Z" fill="white"/>
<path d="M18.9141 26.5581H23.3247L22.9296 27.7907H21.7133V32.3446H20.3176V27.7881L18.9141 27.7907V26.5581Z" fill="white"/>
<path d="M12.1133 28.3979H13.496V32.3421H12.1211L12.1133 28.3979Z" fill="white"/>
<path d="M14.0449 26.5405H15.425V29.234L16.7947 27.8924H18.4425L16.7116 29.5687L18.6505 32.34H17.13L15.8357 30.4198L15.425 30.8169V32.34H14.0449V26.5405Z" fill="white"/>
<path d="M28.0879 26.5405H29.468V29.234L30.8377 27.8924H32.4855L30.7545 29.5687L32.6934 32.34H31.173L29.8786 30.4198L29.468 30.8169V32.34H28.0879V26.5405Z" fill="white"/>
<path d="M12.8059 27.947C13.1906 27.947 13.5025 27.6356 13.5025 27.2516C13.5025 26.8675 13.1906 26.5562 12.8059 26.5562C12.4212 26.5562 12.1094 26.8675 12.1094 27.2516C12.1094 27.6356 12.4212 27.947 12.8059 27.947Z" fill="white"/>
<path d="M25.1601 27.6201C23.8527 27.6201 22.7949 28.6762 22.7949 29.9814C22.7949 31.2867 23.8527 32.3428 25.1601 32.3428C26.4674 32.3428 27.5252 31.2867 27.5252 29.9814C27.5252 28.6762 26.4648 27.6201 25.1601 27.6201ZM25.1601 31.1284C24.5259 31.1284 24.0113 30.6146 24.0113 29.9814C24.0113 29.3483 24.5259 28.8345 25.1601 28.8345C25.7942 28.8345 26.3089 29.3483 26.3089 29.9814C26.3089 30.6146 25.7942 31.1284 25.1601 31.1284Z" fill="white"/>
</g>
</g>
<rect x="1" y="1" width="38" height="38" rx="19" stroke="white" stroke-width="2"/>
<defs>
<clipPath id="clip0_3518_1294">
<rect width="40" height="40" rx="20" fill="white"/>
</clipPath>
<clipPath id="clip1_3518_1294">
<rect width="25.1538" height="24.3424" fill="white" transform="translate(7.53711 8)"/>
</clipPath>
</defs>
</svg>
