<svg width="40" height="40" viewBox="0 0 40 40" fill="none" xmlns="http://www.w3.org/2000/svg">
<rect x="1" y="1" width="38" height="38" rx="19" fill="white"/>
<rect x="1" y="1" width="38" height="38" rx="19" stroke="white" stroke-width="2"/>
<path d="M12.3842 8.57617C10.2811 8.57617 8.57617 10.2811 8.57617 12.3842V27.6162C8.57617 29.7193 10.2811 31.4242 12.3842 31.4242H27.6162C29.7193 31.4242 31.4242 29.7193 31.4242 27.6162V12.3842C31.4242 10.2811 29.7193 8.57617 27.6162 8.57617H12.3842ZM13.5189 13.4722H17.8369L20.9033 17.8295L24.6242 13.4722H25.9842L21.5174 18.7018L27.0254 26.5282H22.7085L19.1502 21.4728L14.8322 26.5282H13.4722L18.536 20.6005L13.5189 13.4722ZM15.6014 14.5602L23.2759 25.4402H24.9429L17.2685 14.5602H15.6014Z" fill="black"/>
</svg>
