<svg width="40" height="40" viewBox="0 0 40 40" fill="none" xmlns="http://www.w3.org/2000/svg">
<g clip-path="url(#clip0_3518_1287)">
<rect width="40" height="40" rx="20" fill="white"/>
<g clip-path="url(#clip1_3518_1287)">
<path d="M33.8974 12.6602C33.5698 11.4308 32.6047 10.4628 31.3791 10.1342C29.1577 9.53711 20.2502 9.53711 20.2502 9.53711C20.2502 9.53711 11.3428 9.53711 9.12138 10.1342C7.89584 10.4628 6.93059 11.4308 6.60304 12.6602C6.00781 14.8883 6.00781 19.5371 6.00781 19.5371C6.00781 19.5371 6.00781 24.1859 6.60304 26.4142C6.93059 27.6434 7.89584 28.6115 9.12138 28.9401C11.3428 29.5371 20.2502 29.5371 20.2502 29.5371C20.2502 29.5371 29.1577 29.5371 31.3791 28.9401C32.6047 28.6115 33.5698 27.6434 33.8974 26.4142C34.4927 24.1859 34.4927 19.5371 34.4927 19.5371C34.4927 19.5371 34.4927 14.8883 33.8974 12.6602Z" fill="#ED1D24"/>
<path d="M17.3359 23.7573L24.7808 19.5368L17.3359 15.3158V23.7573Z" fill="white"/>
</g>
</g>
<rect x="1" y="1" width="38" height="38" rx="19" stroke="white" stroke-width="2"/>
<defs>
<clipPath id="clip0_3518_1287">
<rect width="40" height="40" rx="20" fill="white"/>
</clipPath>
<clipPath id="clip1_3518_1287">
<rect width="28.4848" height="20" fill="white" transform="translate(6.00781 9.53711)"/>
</clipPath>
</defs>
</svg>
