<svg width="330" height="22" viewBox="0 0 330 22" fill="none" xmlns="http://www.w3.org/2000/svg">
<g clip-path="url(#clip0_4439_3988)">
<path d="M16.8984 7.27332H14.4732C14.3298 6.5767 14.0788 5.96472 13.7202 5.43738C13.3681 4.91004 12.9379 4.46733 12.4293 4.10925C11.9273 3.74467 11.3699 3.47123 10.7571 3.28894C10.1443 3.10665 9.50537 3.0155 8.84038 3.0155C7.62776 3.0155 6.52924 3.32149 5.5448 3.93347C4.56688 4.54545 3.7878 5.44714 3.20757 6.63855C2.63386 7.82996 2.347 9.29155 2.347 11.0233C2.347 12.7551 2.63386 14.2167 3.20757 15.4081C3.7878 16.5995 4.56688 17.5012 5.5448 18.1132C6.52924 18.7251 7.62776 19.0311 8.84038 19.0311C9.50537 19.0311 10.1443 18.94 10.7571 18.7577C11.3699 18.5754 11.9273 18.3052 12.4293 17.9471C12.9379 17.5826 13.3681 17.1366 13.7202 16.6093C14.0788 16.0754 14.3298 15.4634 14.4732 14.7733H16.8984C16.7159 15.7955 16.3834 16.7102 15.901 17.5175C15.4185 18.3247 14.8187 19.0116 14.1016 19.578C13.3844 20.1379 12.5793 20.5643 11.6861 20.8573C10.7995 21.1503 9.8509 21.2968 8.84038 21.2968C7.13229 21.2968 5.61325 20.8801 4.28328 20.0468C2.95331 19.2134 1.90694 18.0285 1.14416 16.4921C0.381388 14.9556 0 13.1327 0 11.0233C0 8.91394 0.381388 7.09102 1.14416 5.55457C1.90694 4.01811 2.95331 2.83321 4.28328 1.99988C5.61325 1.16654 7.13229 0.749878 8.84038 0.749878C9.8509 0.749878 10.7995 0.896362 11.6861 1.18933C12.5793 1.4823 13.3844 1.91199 14.1016 2.47839C14.8187 3.03829 15.4185 3.72188 15.901 4.52918C16.3834 5.32996 16.7159 6.24467 16.8984 7.27332Z" fill="white"/>
<path d="M48.7311 11.0233C48.7311 13.1327 48.3498 14.9556 47.587 16.4921C46.8242 18.0285 45.7778 19.2134 44.4479 20.0468C43.1179 20.8801 41.5989 21.2968 39.8908 21.2968C38.1827 21.2968 36.6636 20.8801 35.3337 20.0468C34.0037 19.2134 32.9573 18.0285 32.1945 16.4921C31.4318 14.9556 31.0504 13.1327 31.0504 11.0233C31.0504 8.91394 31.4318 7.09102 32.1945 5.55457C32.9573 4.01811 34.0037 2.83321 35.3337 1.99988C36.6636 1.16654 38.1827 0.749878 39.8908 0.749878C41.5989 0.749878 43.1179 1.16654 44.4479 1.99988C45.7778 2.83321 46.8242 4.01811 47.587 5.55457C48.3498 7.09102 48.7311 8.91394 48.7311 11.0233ZM46.3841 11.0233C46.3841 9.29155 46.094 7.82996 45.5138 6.63855C44.9401 5.44714 44.161 4.54545 43.1766 3.93347C42.1987 3.32149 41.1034 3.0155 39.8908 3.0155C38.6781 3.0155 37.5796 3.32149 36.5952 3.93347C35.6173 4.54545 34.8382 5.44714 34.2579 6.63855C33.6842 7.82996 33.3974 9.29155 33.3974 11.0233C33.3974 12.7551 33.6842 14.2167 34.2579 15.4081C34.8382 16.5995 35.6173 17.5012 36.5952 18.1132C37.5796 18.7251 38.6781 19.0311 39.8908 19.0311C41.1034 19.0311 42.1987 18.7251 43.1766 18.1132C44.161 17.5012 44.9401 16.5995 45.5138 15.4081C46.094 14.2167 46.3841 12.7551 46.3841 11.0233Z" fill="white"/>
<path d="M79.7057 1.02332V21.0233H77.3587L66.4452 5.32019H66.2496V21.0233H63.8243V1.02332H66.1713L77.124 16.7655H77.3196V1.02332H79.7057Z" fill="white"/>
<path d="M94.4787 3.17175V1.02332H109.499V3.17175H103.202V21.0233H100.776V3.17175H94.4787Z" fill="white"/>
<path d="M124.258 21.0233V1.02332H136.345V3.17175H126.683V9.92957H135.719V12.078H126.683V18.8749H136.501V21.0233H124.258Z" fill="white"/>
<path d="M167.613 1.02332V21.0233H165.266L154.352 5.32019H154.157V21.0233H151.731V1.02332H154.078L165.031 16.7655H165.227V1.02332H167.613Z" fill="white"/>
<path d="M182.386 3.17175V1.02332H197.407V3.17175H191.109V21.0233H188.684V3.17175H182.386Z" fill="white"/>
<path d="M230.925 21.0233V1.02332H242.934V3.17175H233.35V9.92957H242.034V12.078H233.35V21.0233H230.925Z" fill="white"/>
<path d="M271.246 1.02332H273.672V14.2655C273.672 15.6327 273.349 16.8534 272.703 17.9276C272.064 18.9953 271.161 19.8384 269.994 20.4569C268.828 21.0689 267.458 21.3749 265.887 21.3749C264.316 21.3749 262.947 21.0689 261.78 20.4569C260.613 19.8384 259.707 18.9953 259.061 17.9276C258.422 16.8534 258.103 15.6327 258.103 14.2655V1.02332H260.528V14.0702C260.528 15.0468 260.743 15.9159 261.174 16.6776C261.604 17.4328 262.217 18.0285 263.012 18.4647C263.814 18.8944 264.772 19.1093 265.887 19.1093C267.002 19.1093 267.96 18.8944 268.762 18.4647C269.564 18.0285 270.177 17.4328 270.601 16.6776C271.031 15.9159 271.246 15.0468 271.246 14.0702V1.02332Z" fill="white"/>
<path d="M288.865 21.0233V19.2655L299.661 3.17175H288.748V1.02332H302.556V2.78113L291.76 18.8749H302.673V21.0233H288.865Z" fill="white"/>
<path d="M317.757 21.0233V1.02332H329.844V3.17175H320.182V9.92957H329.218V12.078H320.182V18.8749H330V21.0233H317.757Z" fill="white"/>
</g>
<defs>
<clipPath id="clip0_4439_3988">
<rect width="330" height="20.625" fill="white" transform="translate(0 0.749878)"/>
</clipPath>
</defs>
</svg>
