<svg width="138" height="40" viewBox="0 0 138 40" fill="none" xmlns="http://www.w3.org/2000/svg">
<g clip-path="url(#clip0_4266_4071)">
<path d="M20.0714 39.5921C30.8805 39.5921 39.6429 30.8206 39.6429 20.0003C39.6429 9.18001 30.8805 0.408447 20.0714 0.408447C9.26243 0.408447 0.5 9.18001 0.5 20.0003C0.5 30.8206 9.26243 39.5921 20.0714 39.5921Z" fill="white"/>
<path d="M22.9353 17.8758C22.6869 17.8758 22.4607 17.8982 22.2569 17.9428C22.053 17.9875 21.865 18.0831 21.693 18.2298C21.521 18.3701 21.349 18.5774 21.177 18.8517C21.0049 19.1195 20.8266 19.4703 20.6418 19.9039C20.4252 20.4205 20.1958 20.9211 19.9538 21.4059C19.7053 21.8905 19.4186 22.3274 19.0937 22.7164C18.7687 23.1055 18.3865 23.4148 17.9469 23.6443C17.501 23.8676 16.9785 23.9792 16.3797 23.9792C15.7936 23.9792 15.2616 23.8739 14.7838 23.6635C14.306 23.4467 13.8982 23.1406 13.5605 22.7451C13.2166 22.3497 12.9521 21.8873 12.7674 21.358C12.5826 20.8223 12.4902 20.2259 12.4902 19.5691C12.4902 18.6762 12.675 17.9046 13.0445 17.254C13.414 16.5971 13.9205 16.0901 14.564 15.733C15.2075 15.3695 15.9465 15.1877 16.781 15.1877V17.981C16.3861 17.981 16.0389 18.0385 15.7394 18.1533C15.4336 18.2617 15.1947 18.437 15.0227 18.6794C14.8507 18.9218 14.7647 19.2343 14.7647 19.6169C14.7647 19.9741 14.8379 20.2706 14.9844 20.5066C15.1246 20.7361 15.319 20.9084 15.5674 21.0232C15.8095 21.1316 16.0835 21.1858 16.3893 21.1858C16.6186 21.1858 16.8256 21.1316 17.0104 21.0232C17.1888 20.9084 17.3513 20.7521 17.4978 20.5544C17.6379 20.3567 17.7749 20.1239 17.9087 19.8561C18.0425 19.5819 18.1731 19.2821 18.3005 18.9569C18.549 18.3255 18.823 17.7674 19.1223 17.2828C19.4154 16.798 19.7467 16.393 20.1162 16.0678C20.4794 15.7426 20.8903 15.497 21.349 15.3312C21.8077 15.1654 22.3301 15.0825 22.9163 15.0825C23.496 15.0825 24.0248 15.1846 24.5026 15.3886C24.974 15.5864 25.3818 15.8765 25.7258 16.2592C26.0635 16.6418 26.3247 17.1042 26.5094 17.6463C26.6942 18.1819 26.7866 18.7815 26.7866 19.4447C26.7866 20.0889 26.6974 20.6979 26.5189 21.2719C26.3342 21.8459 26.0571 22.3529 25.6876 22.793C25.3117 23.2266 24.8371 23.5678 24.2637 23.8166C23.6839 24.0653 22.999 24.1896 22.2091 24.1896V21.3867C22.6295 21.3867 22.9895 21.3452 23.2889 21.2624C23.582 21.1794 23.8178 21.0519 23.9961 20.8797C24.1681 20.7075 24.2987 20.497 24.3879 20.2483C24.4707 19.9932 24.5121 19.703 24.5121 19.3778C24.5121 19.0079 24.4421 18.7145 24.3019 18.4977C24.1617 18.2744 23.9738 18.115 23.7381 18.0193C23.5023 17.9237 23.2348 17.8758 22.9353 17.8758Z" fill="#3328BF"/>
<path d="M52.0118 22.2528C52.0118 22.0455 51.9933 21.8568 51.9561 21.6867C51.9189 21.5167 51.8393 21.3599 51.7171 21.2164C51.6004 21.0729 51.4278 20.9294 51.1996 20.7859C50.9765 20.6424 50.6846 20.4936 50.3236 20.3395C49.8935 20.1588 49.4767 19.9675 49.0733 19.7655C48.6698 19.5582 48.3061 19.3191 47.9823 19.048C47.6583 18.777 47.4009 18.4581 47.2098 18.0914C47.0239 17.7194 46.931 17.2835 46.931 16.784C46.931 16.2951 47.0186 15.8513 47.1939 15.4527C47.3743 15.0541 47.6292 14.7139 47.9584 14.4323C48.2875 14.1453 48.6724 13.9247 49.1131 13.7706C49.5591 13.6164 50.0554 13.5394 50.6023 13.5394C51.3455 13.5394 51.988 13.6935 52.5294 14.0017C53.0763 14.31 53.4984 14.7325 53.7957 15.2693C54.0983 15.8061 54.2496 16.4226 54.2496 17.1188H51.9242C51.9242 16.7893 51.8765 16.4996 51.7809 16.2498C51.6906 15.9948 51.5447 15.7955 51.3429 15.652C51.1412 15.5084 50.8809 15.4368 50.5624 15.4368C50.2651 15.4368 50.0183 15.4978 49.8218 15.6201C49.6307 15.737 49.4874 15.8991 49.3918 16.1064C49.3015 16.3084 49.2564 16.5369 49.2564 16.792C49.2564 16.9833 49.3015 17.156 49.3918 17.3102C49.4874 17.459 49.6174 17.5945 49.782 17.7167C49.9466 17.8337 50.1403 17.9479 50.3634 18.0595C50.5916 18.1711 50.8412 18.28 51.112 18.3863C51.6375 18.5936 52.102 18.8222 52.5055 19.072C52.909 19.3164 53.2462 19.5928 53.517 19.901C53.7877 20.204 53.9922 20.5467 54.1301 20.9294C54.2682 21.312 54.3372 21.7479 54.3372 22.2368C54.3372 22.7204 54.2523 23.1615 54.0823 23.5601C53.9178 23.9534 53.6762 24.2936 53.3577 24.5805C53.0391 24.8622 52.6542 25.0801 52.2029 25.2342C51.757 25.3884 51.2579 25.4654 50.7058 25.4654C50.1696 25.4654 49.6625 25.3911 49.1848 25.2422C48.7069 25.0881 48.2849 24.8569 47.9185 24.5487C47.5575 24.2351 47.2734 23.8391 47.0664 23.3609C46.8593 22.8772 46.7559 22.3059 46.7559 21.6469H49.0892C49.0892 21.9977 49.1237 22.2979 49.1927 22.5477C49.2617 22.7922 49.3679 22.9889 49.5113 23.1377C49.6546 23.2811 49.8298 23.3901 50.0368 23.4644C50.2492 23.5336 50.4907 23.5681 50.7616 23.5681C51.0695 23.5681 51.3136 23.5097 51.4942 23.3927C51.68 23.2758 51.8127 23.1191 51.8924 22.9224C51.972 22.7257 52.0118 22.5026 52.0118 22.2528ZM58.0482 18.4661V25.306H55.8105V16.6804H57.9129L58.0482 18.4661ZM57.7297 20.6982L57.1165 20.7142C57.1059 20.1083 57.159 19.5502 57.2758 19.04C57.3926 18.5298 57.5678 18.0861 57.8014 17.7088C58.0403 17.3314 58.3403 17.0391 58.7013 16.8318C59.0623 16.6245 59.4844 16.5209 59.9675 16.5209C60.2807 16.5209 60.5701 16.5794 60.8355 16.6963C61.101 16.8079 61.3319 16.9859 61.5284 17.2304C61.7248 17.4696 61.8761 17.7831 61.9823 18.1711C62.0884 18.5537 62.1415 19.0135 62.1415 19.5502V25.306H59.9118V19.8213C59.9118 19.4386 59.8746 19.1463 59.8003 18.9444C59.7259 18.7371 59.6198 18.5936 59.4817 18.5139C59.3437 18.4289 59.1738 18.3863 58.972 18.3863C58.7597 18.3863 58.5738 18.4449 58.4146 18.5617C58.2553 18.6786 58.1252 18.8434 58.0244 19.056C57.9288 19.2633 57.8545 19.5077 57.8014 19.7894C57.7536 20.0711 57.7297 20.374 57.7297 20.6982ZM61.9266 20.475L61.1222 20.5786C61.1116 20.01 61.1621 19.4812 61.2735 18.9922C61.385 18.498 61.5576 18.0675 61.7912 17.7008C62.0248 17.3288 62.3168 17.0391 62.6672 16.8318C63.0229 16.6245 63.4343 16.5209 63.9015 16.5209C64.2519 16.5209 64.5705 16.5794 64.8572 16.6963C65.1439 16.8133 65.3881 17.0019 65.5899 17.2623C65.7969 17.5174 65.9535 17.8549 66.0597 18.2747C66.1711 18.6946 66.2269 19.2048 66.2269 19.8053V25.306H63.9892V19.8133C63.9892 19.4253 63.952 19.1277 63.8777 18.9204C63.8033 18.7132 63.6971 18.5724 63.5591 18.498C63.4211 18.4235 63.2565 18.3863 63.0654 18.3863C62.8742 18.3863 62.707 18.4395 62.5636 18.5458C62.4256 18.6521 62.3088 18.8009 62.2132 18.9922C62.1176 19.1782 62.046 19.3988 61.9983 19.6539C61.9505 19.9037 61.9266 20.1773 61.9266 20.475ZM71.7059 23.321V19.335C71.7059 19.0746 71.674 18.8673 71.6104 18.7132C71.552 18.5591 71.4617 18.4475 71.3395 18.3784C71.2228 18.304 71.0794 18.2668 70.9095 18.2668C70.7184 18.2668 70.5591 18.3066 70.4317 18.3863C70.3043 18.4661 70.2087 18.5804 70.145 18.7292C70.0866 18.878 70.0574 19.056 70.0574 19.2633H67.8196C67.8196 18.8912 67.8913 18.5404 68.0347 18.211C68.178 17.8761 68.3877 17.5839 68.6638 17.3341C68.9451 17.079 69.2796 16.8796 69.6672 16.7362C70.0548 16.5927 70.4901 16.5209 70.9732 16.5209C71.5466 16.5209 72.0563 16.6192 72.5022 16.8159C72.9482 17.0072 73.3012 17.3128 73.5615 17.7327C73.8216 18.1525 73.9517 18.6973 73.9517 19.3669V23.2093C73.9517 23.693 73.9756 24.0863 74.0234 24.3893C74.0764 24.6921 74.1534 24.9526 74.2543 25.1705V25.306H72.0086C71.9077 25.0668 71.8307 24.7692 71.7775 24.4131C71.7298 24.0517 71.7059 23.6877 71.7059 23.321ZM71.9767 20.0365L71.9847 21.3758H71.1644C70.952 21.3758 70.7662 21.4104 70.6069 21.4795C70.453 21.5485 70.3229 21.6469 70.2167 21.7744C70.1105 21.8967 70.0309 22.0401 69.9778 22.2049C69.93 22.3697 69.9061 22.545 69.9061 22.7311C69.9061 22.9383 69.9353 23.1137 69.9938 23.2572C70.0521 23.4007 70.1397 23.5097 70.2565 23.584C70.3733 23.6585 70.5113 23.6956 70.6706 23.6956C70.9148 23.6956 71.1272 23.6452 71.3077 23.5442C71.4882 23.4432 71.621 23.321 71.7059 23.1775C71.7961 23.034 71.8253 22.9011 71.7935 22.7789L72.3032 23.6479C72.2395 23.8444 72.1518 24.0491 72.0404 24.2617C71.9342 24.4742 71.7988 24.6709 71.6342 24.8516C71.4696 25.0323 71.2652 25.1811 71.021 25.298C70.7821 25.4097 70.498 25.4654 70.1689 25.4654C69.707 25.4654 69.2849 25.3591 68.9027 25.1466C68.5204 24.934 68.2178 24.6364 67.9949 24.2537C67.7772 23.8711 67.6683 23.4166 67.6683 22.8905C67.6683 22.4547 67.7373 22.0614 67.8754 21.7106C68.0188 21.3546 68.2311 21.0543 68.5124 20.8098C68.7939 20.56 69.1496 20.3687 69.5796 20.2359C70.0097 20.103 70.514 20.0365 71.0927 20.0365H71.9767ZM77.8299 18.6016V25.306H75.6002V16.6804H77.7025L77.8299 18.6016ZM79.8607 16.6166L79.8288 18.8408C79.7279 18.8195 79.6059 18.8035 79.4625 18.7929C79.3244 18.7823 79.2024 18.777 79.0962 18.777C78.8466 18.777 78.6343 18.8169 78.4591 18.8965C78.2839 18.971 78.1378 19.0853 78.0211 19.2394C77.9096 19.3882 77.8246 19.5742 77.7662 19.7974C77.7078 20.0206 77.6733 20.273 77.6627 20.5547L77.2406 20.3953C77.2406 19.832 77.2831 19.3164 77.368 18.8487C77.4583 18.3757 77.5911 17.9665 77.7662 17.621C77.9414 17.2702 78.1511 16.9992 78.3954 16.8079C78.6449 16.6166 78.9262 16.5209 79.2395 16.5209C79.3456 16.5209 79.4572 16.5315 79.574 16.5528C79.696 16.5688 79.7916 16.59 79.8607 16.6166ZM85.1561 16.6804V18.3624H80.7606V16.6804H85.1561ZM81.7719 14.5519H83.994V22.6752C83.994 22.9144 84.0177 23.0977 84.0658 23.2253C84.1131 23.3529 84.1848 23.4432 84.2802 23.4964C84.3814 23.5442 84.5143 23.5681 84.679 23.5681C84.7899 23.5681 84.8935 23.5628 84.9889 23.5522C85.0851 23.5362 85.1561 23.5203 85.2042 23.5044V25.2502C85.0289 25.3193 84.8429 25.3724 84.6472 25.4097C84.4556 25.4468 84.2272 25.4654 83.9622 25.4654C83.5161 25.4654 83.1288 25.3804 82.7993 25.2103C82.4756 25.0403 82.2228 24.7692 82.0427 24.3972C81.8622 24.0199 81.7719 23.5256 81.7719 22.9144V14.5519ZM95.175 22.2528C95.175 22.0455 95.1563 21.8568 95.1187 21.6867C95.082 21.5167 95.0021 21.3599 94.8798 21.2164C94.7632 21.0729 94.5911 20.9294 94.3628 20.7859C94.1394 20.6424 93.8474 20.4936 93.4862 20.3395C93.0564 20.1588 92.6397 19.9675 92.236 19.7655C91.8324 19.5582 91.4687 19.3191 91.1449 19.048C90.8212 18.777 90.5635 18.4581 90.3727 18.0914C90.1867 17.7194 90.0938 17.2835 90.0938 16.784C90.0938 16.2951 90.1819 15.8513 90.3564 15.4527C90.5374 15.0541 90.7918 14.7139 91.1213 14.4323C91.4507 14.1453 91.8356 13.9247 92.276 13.7706C92.7221 13.6164 93.2187 13.5394 93.7651 13.5394C94.5088 13.5394 95.1505 13.6935 95.692 14.0017C96.2392 14.31 96.6616 14.7325 96.9585 15.2693C97.261 15.8061 97.4127 16.4226 97.4127 17.1188H95.0869C95.0869 16.7893 95.0396 16.4996 94.9434 16.2498C94.8537 15.9948 94.7077 15.7955 94.5055 15.652C94.3041 15.5084 94.0439 15.4368 93.7251 15.4368C93.4283 15.4368 93.1812 15.4978 92.9846 15.6201C92.7938 15.737 92.6503 15.8991 92.5549 16.1064C92.4644 16.3084 92.4195 16.5369 92.4195 16.792C92.4195 16.9833 92.4644 17.156 92.5549 17.3102C92.6503 17.459 92.78 17.5945 92.9447 17.7167C93.1094 17.8337 93.3035 17.9479 93.5261 18.0595C93.7544 18.1711 94.004 18.28 94.2747 18.3863C94.8007 18.5936 95.2647 18.8222 95.6684 19.072C96.072 19.3164 96.4088 19.5928 96.6796 19.901C96.9503 20.204 97.155 20.5467 97.2928 20.9294C97.4314 21.312 97.4999 21.7479 97.4999 22.2368C97.4999 22.7204 97.4151 23.1615 97.2455 23.5601C97.0808 23.9534 96.8394 24.2936 96.5205 24.5805C96.2017 24.8622 95.8168 25.0801 95.3658 25.2342C94.9198 25.3884 94.4207 25.4654 93.8686 25.4654C93.3329 25.4654 92.8256 25.3911 92.3478 25.2422C91.8699 25.0881 91.4475 24.8569 91.0813 24.5487C90.7201 24.2351 90.4363 23.8391 90.2291 23.3609C90.022 22.8772 89.9184 22.3059 89.9184 21.6469H92.2523C92.2523 21.9977 92.2866 22.2979 92.3559 22.5477C92.4244 22.7922 92.5304 22.9889 92.6739 23.1377C92.8175 23.2811 92.9928 23.3901 93.1999 23.4644C93.412 23.5336 93.6533 23.5681 93.9241 23.5681C94.2323 23.5681 94.477 23.5097 94.6572 23.3927C94.8431 23.2758 94.976 23.1191 95.0551 22.9224C95.135 22.7257 95.175 22.5026 95.175 22.2528ZM101.139 13.0611V25.306H98.9099V13.0611H101.139ZM100.821 20.6982L100.215 20.7142C100.215 20.1083 100.277 19.5502 100.399 19.04C100.526 18.5298 100.71 18.0861 100.949 17.7088C101.188 17.3314 101.477 17.0391 101.816 16.8318C102.161 16.6245 102.541 16.5209 102.955 16.5209C103.311 16.5209 103.635 16.5821 103.927 16.7043C104.219 16.8265 104.471 17.0178 104.683 17.2782C104.901 17.5386 105.068 17.8814 105.185 18.3066C105.302 18.7318 105.36 19.25 105.36 19.8612V25.306H103.123V19.8452C103.123 19.4732 103.085 19.1809 103.011 18.9683C102.937 18.7557 102.825 18.6069 102.677 18.5219C102.528 18.4315 102.342 18.3863 102.119 18.3863C101.88 18.3863 101.676 18.4475 101.506 18.5697C101.342 18.6866 101.209 18.8487 101.108 19.056C101.006 19.2633 100.932 19.5077 100.885 19.7894C100.843 20.0711 100.821 20.374 100.821 20.6982ZM111.158 23.2333V16.6804H113.395V25.306H111.293L111.158 23.2333ZM111.413 21.4555L112.033 21.4396C112.033 22.0189 111.978 22.5557 111.866 23.0499C111.755 23.5389 111.588 23.964 111.365 24.3254C111.142 24.6868 110.863 24.9685 110.529 25.1705C110.194 25.3671 109.799 25.4654 109.342 25.4654C108.992 25.4654 108.668 25.407 108.37 25.2901C108.078 25.1678 107.826 24.9791 107.614 24.724C107.401 24.4636 107.234 24.1315 107.112 23.7275C106.995 23.3183 106.937 22.8267 106.937 22.2528V16.6804H109.175V22.2767C109.175 22.5105 109.196 22.7124 109.239 22.8825C109.281 23.0473 109.339 23.1828 109.414 23.2891C109.488 23.3954 109.576 23.4724 109.677 23.5203C109.778 23.5628 109.892 23.584 110.019 23.584C110.369 23.584 110.645 23.4937 110.847 23.313C111.054 23.127 111.2 22.8746 111.286 22.5557C111.37 22.2315 111.413 21.8648 111.413 21.4555ZM118.779 16.6804V18.3624H114.383V16.6804H118.779ZM115.395 14.5519H117.616V22.6752C117.616 22.9144 117.64 23.0977 117.688 23.2253C117.736 23.3529 117.808 23.4432 117.903 23.4964C118.003 23.5442 118.136 23.5681 118.301 23.5681C118.413 23.5681 118.516 23.5628 118.612 23.5522C118.707 23.5362 118.779 23.5203 118.827 23.5044V25.2502C118.652 25.3193 118.466 25.3724 118.269 25.4097C118.078 25.4468 117.85 25.4654 117.584 25.4654C117.138 25.4654 116.751 25.3804 116.421 25.2103C116.098 25.0403 115.846 24.7692 115.665 24.3972C115.484 24.0199 115.395 23.5256 115.395 22.9144V14.5519ZM123.78 16.6804V18.3624H119.384V16.6804H123.78ZM120.395 14.5519H122.617V22.6752C122.617 22.9144 122.641 23.0977 122.689 23.2253C122.736 23.3529 122.808 23.4432 122.904 23.4964C123.005 23.5442 123.138 23.5681 123.302 23.5681C123.414 23.5681 123.518 23.5628 123.613 23.5522C123.709 23.5362 123.78 23.5203 123.828 23.5044V25.2502C123.653 25.3193 123.467 25.3724 123.271 25.4097C123.079 25.4468 122.851 25.4654 122.586 25.4654C122.14 25.4654 121.752 25.3804 121.423 25.2103C121.099 25.0403 120.847 24.7692 120.666 24.3972C120.486 24.0199 120.395 23.5256 120.395 22.9144V14.5519ZM128.495 25.4654C127.905 25.4654 127.382 25.3751 126.926 25.1944C126.475 25.0137 126.092 24.7533 125.779 24.4131C125.466 24.0677 125.227 23.6505 125.062 23.1615C124.897 22.6726 124.815 22.1146 124.815 21.4875V20.7779C124.815 20.0764 124.895 19.4626 125.054 18.9364C125.214 18.4049 125.439 17.9585 125.731 17.5971C126.023 17.2357 126.382 16.9674 126.807 16.792C127.236 16.6113 127.722 16.5209 128.264 16.5209C128.805 16.5209 129.281 16.6113 129.689 16.792C130.103 16.9674 130.446 17.2331 130.717 17.5892C130.987 17.94 131.191 18.3757 131.33 18.8965C131.468 19.4174 131.537 20.0232 131.537 20.7142V21.7346H125.763V20.1641H129.347V19.9648C129.347 19.614 129.309 19.3217 129.235 19.0879C129.161 18.8487 129.044 18.6706 128.885 18.5537C128.725 18.4369 128.513 18.3784 128.247 18.3784C128.025 18.3784 127.836 18.4235 127.682 18.5139C127.528 18.6043 127.406 18.7451 127.316 18.9364C127.226 19.1277 127.16 19.3775 127.117 19.6857C127.074 19.9887 127.053 20.3528 127.053 20.7779V21.4875C127.053 21.886 127.088 22.2209 127.156 22.4919C127.226 22.7577 127.327 22.9755 127.46 23.1456C127.598 23.3103 127.765 23.4299 127.961 23.5044C128.158 23.5734 128.386 23.608 128.646 23.608C129.038 23.608 129.392 23.5389 129.705 23.4007C130.024 23.2572 130.294 23.0632 130.518 22.8187L131.409 24.174C131.255 24.376 131.043 24.5779 130.772 24.7799C130.501 24.9818 130.178 25.1466 129.801 25.2741C129.423 25.4017 128.988 25.4654 128.495 25.4654ZM135.057 18.6016V25.306H132.827V16.6804H134.929L135.057 18.6016ZM137.087 16.6166L137.055 18.8408C136.954 18.8195 136.833 18.8035 136.689 18.7929C136.551 18.7823 136.429 18.777 136.323 18.777C136.074 18.777 135.861 18.8169 135.685 18.8965C135.511 18.971 135.365 19.0853 135.248 19.2394C135.137 19.3882 135.051 19.5742 134.993 19.7974C134.934 20.0206 134.9 20.273 134.89 20.5547L134.467 20.3953C134.467 19.832 134.51 19.3164 134.595 18.8487C134.685 18.3757 134.818 17.9665 134.993 17.621C135.168 17.2702 135.378 16.9992 135.622 16.8079C135.871 16.6166 136.153 16.5209 136.466 16.5209C136.573 16.5209 136.684 16.5315 136.801 16.5528C136.923 16.5688 137.019 16.59 137.087 16.6166Z" fill="white"/>
</g>
<defs>
<clipPath id="clip0_4266_4071">
<rect width="137" height="40" fill="white" transform="translate(0.5 -0.00012207)"/>
</clipPath>
</defs>
</svg>
