<svg width="193" height="12" viewBox="0 0 193 12" fill="none" xmlns="http://www.w3.org/2000/svg">
<path d="M10.3318 3.79533H8.92077C8.83732 3.39003 8.69128 3.03397 8.48266 2.72715C8.27783 2.42033 8.02748 2.16276 7.73162 1.95442C7.43955 1.7423 7.11523 1.58321 6.75868 1.47715C6.40212 1.37109 6.0304 1.31806 5.6435 1.31806C4.93797 1.31806 4.29883 1.49609 3.72606 1.85215C3.15709 2.20821 2.70381 2.73283 2.36622 3.42601C2.03243 4.1192 1.86553 4.96958 1.86553 5.97715C1.86553 6.98473 2.03243 7.83511 2.36622 8.52829C2.70381 9.22147 3.15709 9.74609 3.72606 10.1022C4.29883 10.4582 4.93797 10.6362 5.6435 10.6362C6.0304 10.6362 6.40212 10.5832 6.75868 10.4772C7.11523 10.3711 7.43955 10.2139 7.73162 10.0056C8.02748 9.79344 8.27783 9.53397 8.48266 9.22715C8.69128 8.91654 8.83732 8.56048 8.92077 8.15897H10.3318C10.2256 8.75367 10.0322 9.28586 9.75146 9.75556C9.47077 10.2253 9.1218 10.6249 8.70456 10.9544C8.28731 11.2802 7.81886 11.5283 7.2992 11.6987C6.78333 11.8692 6.23143 11.9544 5.6435 11.9544C4.64969 11.9544 3.76589 11.712 2.99209 11.2272C2.21829 10.7423 1.60949 10.0529 1.1657 9.15897C0.721899 8.26503 0.5 7.20442 0.5 5.97715C0.5 4.74988 0.721899 3.68927 1.1657 2.79533C1.60949 1.90139 2.21829 1.212 2.99209 0.727151C3.76589 0.242302 4.64969 -0.00012207 5.6435 -0.00012207C6.23143 -0.00012207 6.78333 0.0851053 7.2992 0.25556C7.81886 0.426015 8.28731 0.676015 8.70456 1.00556C9.1218 1.33132 9.47077 1.72904 9.75146 2.19874C10.0322 2.66465 10.2256 3.19685 10.3318 3.79533Z" fill="white"/>
<path d="M28.8527 5.97715C28.8527 7.20442 28.6308 8.26503 28.187 9.15897C27.7432 10.0529 27.1344 10.7423 26.3606 11.2272C25.5868 11.712 24.703 11.9544 23.7092 11.9544C22.7154 11.9544 21.8316 11.712 21.0578 11.2272C20.284 10.7423 19.6752 10.0529 19.2314 9.15897C18.7876 8.26503 18.5657 7.20442 18.5657 5.97715C18.5657 4.74988 18.7876 3.68927 19.2314 2.79533C19.6752 1.90139 20.284 1.212 21.0578 0.727151C21.8316 0.242302 22.7154 -0.00012207 23.7092 -0.00012207C24.703 -0.00012207 25.5868 0.242302 26.3606 0.727151C27.1344 1.212 27.7432 1.90139 28.187 2.79533C28.6308 3.68927 28.8527 4.74988 28.8527 5.97715ZM27.4871 5.97715C27.4871 4.96958 27.3183 4.1192 26.9808 3.42601C26.647 2.73283 26.1937 2.20821 25.6209 1.85215C25.0519 1.49609 24.4147 1.31806 23.7092 1.31806C23.0036 1.31806 22.3645 1.49609 21.7917 1.85215C21.2228 2.20821 20.7695 2.73283 20.4319 3.42601C20.0981 4.1192 19.9312 4.96958 19.9312 5.97715C19.9312 6.98473 20.0981 7.83511 20.4319 8.52829C20.7695 9.22147 21.2228 9.74609 21.7917 10.1022C22.3645 10.4582 23.0036 10.6362 23.7092 10.6362C24.4147 10.6362 25.0519 10.4582 25.6209 10.1022C26.1937 9.74609 26.647 9.22147 26.9808 8.52829C27.3183 7.83511 27.4871 6.98473 27.4871 5.97715Z" fill="white"/>
<path d="M46.8742 0.158969V11.7953H45.5087L39.159 2.65897H39.0452V11.7953H37.6342V0.158969H38.9997L45.3722 9.31806H45.486V0.158969H46.8742Z" fill="white"/>
<path d="M55.4694 1.40897V0.158969H64.2088V1.40897H60.5446V11.7953H59.1336V1.40897H55.4694Z" fill="white"/>
<path d="M72.7954 11.7953V0.158969H79.8279V1.40897H74.2065V5.34079H79.4637V6.59079H74.2065V10.5453H79.9189V11.7953H72.7954Z" fill="white"/>
<path d="M98.0202 0.158969V11.7953H96.6546L90.3049 2.65897H90.1911V11.7953H88.7801V0.158969H90.1456L96.5181 9.31806H96.6319V0.158969H98.0202Z" fill="white"/>
<path d="M106.615 1.40897V0.158969H115.355V1.40897H111.691V11.7953H110.279V1.40897H106.615Z" fill="white"/>
<path d="M134.856 11.7953V0.158969H141.843V1.40897H136.268V5.34079H141.32V6.59079H136.268V11.7953H134.856Z" fill="white"/>
<path d="M158.316 0.158969H159.727V7.86351C159.727 8.65897 159.539 9.3692 159.164 9.9942C158.792 10.6154 158.267 11.1059 157.588 11.4658C156.909 11.8218 156.112 11.9999 155.198 11.9999C154.284 11.9999 153.487 11.8218 152.808 11.4658C152.129 11.1059 151.602 10.6154 151.227 9.9942C150.855 9.3692 150.669 8.65897 150.669 7.86351V0.158969H152.08V7.74988C152.08 8.31806 152.205 8.82374 152.456 9.26692C152.706 9.70632 153.062 10.0529 153.525 10.3067C153.992 10.5567 154.549 10.6817 155.198 10.6817C155.847 10.6817 156.404 10.5567 156.871 10.3067C157.337 10.0529 157.694 9.70632 157.94 9.26692C158.191 8.82374 158.316 8.31806 158.316 7.74988V0.158969Z" fill="white"/>
<path d="M168.567 11.7953V10.7726L174.848 1.40897H168.499V0.158969H176.532V1.1817L170.251 10.5453H176.601V11.7953H168.567Z" fill="white"/>
<path d="M185.376 11.7953V0.158969H192.409V1.40897H186.788V5.34079H192.045V6.59079H186.788V10.5453H192.5V11.7953H185.376Z" fill="white"/>
</svg>
