<svg width="261" height="48" viewBox="0 0 261 48" fill="none" xmlns="http://www.w3.org/2000/svg">
<mask id="mask0_4266_4021" style="mask-type:luminance" maskUnits="userSpaceOnUse" x="0" y="-1" width="17" height="18">
<path d="M0.5 -0.00012207H16.5774V16.0773H0.5V-0.00012207Z" fill="white"/>
</mask>
<g mask="url(#mask0_4266_4021)">
<path d="M8.53872 -0.00012207C7.47609 -0.00012207 6.4459 0.202672 5.46438 0.608257C4.47475 1.02196 3.60679 1.59789 2.8524 2.35228C2.09801 3.10667 1.52208 3.97462 1.10838 4.96425C0.702794 5.94577 0.5 6.96785 0.5 8.0386C0.5 9.10124 0.702794 10.1314 1.10838 11.1129C1.52208 12.1026 2.09801 12.9705 2.8524 13.7249C3.60679 14.4793 4.47475 15.0552 5.46438 15.4608C6.4459 15.8745 7.47609 16.0773 8.53872 16.0773C9.60136 16.0773 10.6315 15.8745 11.6131 15.4608C12.6027 15.0552 13.4707 14.4793 14.225 13.7249C14.9794 12.9705 15.5554 12.1026 15.9691 11.1129C16.3746 10.1314 16.5774 9.10124 16.5774 8.0386C16.5774 6.96785 16.3746 5.94577 15.9691 4.96425C15.5554 3.97462 14.9794 3.10667 14.225 2.35228C13.4707 1.59789 12.6027 1.02196 11.6131 0.608257C10.6315 0.202672 9.60136 -0.00012207 8.53872 -0.00012207Z" fill="white"/>
</g>
<mask id="mask1_4266_4021" style="mask-type:luminance" maskUnits="userSpaceOnUse" x="29" y="-1" width="17" height="18">
<path d="M29.2578 -0.00012207H45.3353V16.0773H29.2578V-0.00012207Z" fill="white"/>
</mask>
<g mask="url(#mask1_4266_4021)">
<path d="M37.2965 -0.00012207C36.2339 -0.00012207 35.2037 0.202672 34.2222 0.608257C33.2407 1.02196 32.3646 1.59789 31.6183 2.35228C30.8639 3.10667 30.2799 3.97462 29.8743 4.96425C29.4606 5.94577 29.2578 6.96785 29.2578 8.0386C29.2578 9.10124 29.4606 10.1314 29.8743 11.1129C30.2799 12.1026 30.8639 12.9705 31.6183 13.7249C32.3646 14.4793 33.2407 15.0552 34.2222 15.4608C35.2037 15.8745 36.2339 16.0773 37.2965 16.0773C38.3673 16.0773 39.3894 15.8745 40.3709 15.4608C41.3605 15.0552 42.2285 14.4793 42.9829 13.7249C43.7372 12.9705 44.3213 12.1026 44.7269 11.1129C45.1325 10.1314 45.3353 9.10124 45.3353 8.0386C45.3353 6.96785 45.1325 5.94577 44.7269 4.96425C44.3213 3.97462 43.7372 3.10667 42.9829 2.35228C42.2285 1.59789 41.3605 1.02196 40.3709 0.608257C39.3894 0.202672 38.3673 -0.00012207 37.2965 -0.00012207Z" fill="white"/>
</g>
<mask id="mask2_4266_4021" style="mask-type:luminance" maskUnits="userSpaceOnUse" x="58" y="-1" width="17" height="18">
<path d="M58.0176 -0.00012207H74.095V16.0773H58.0176V-0.00012207Z" fill="white"/>
</mask>
<g mask="url(#mask2_4266_4021)">
<path d="M66.0563 -0.00012207C64.9937 -0.00012207 63.9716 0.202672 62.982 0.608257C62.0004 1.02196 61.1325 1.59789 60.3781 2.35228C59.6237 3.10667 59.0397 3.97462 58.6341 4.96425C58.2285 5.94577 58.0176 6.96785 58.0176 8.0386C58.0176 9.10124 58.2285 10.1314 58.6341 11.1129C59.0397 12.1026 59.6237 12.9705 60.3781 13.7249C61.1325 14.4793 62.0004 15.0552 62.982 15.4608C63.9716 15.8745 64.9937 16.0773 66.0563 16.0773C67.127 16.0773 68.1491 15.8745 69.1388 15.4608C70.1203 15.0552 70.9882 14.4793 71.7426 13.7249C72.497 12.9705 73.0811 12.1026 73.4866 11.1129C73.8922 10.1314 74.095 9.10124 74.095 8.0386C74.095 6.96785 73.8922 5.94577 73.4866 4.96425C73.0811 3.97462 72.497 3.10667 71.7426 2.35228C70.9882 1.59789 70.1203 1.02196 69.1388 0.608257C68.1491 0.202672 67.127 -0.00012207 66.0563 -0.00012207Z" fill="white"/>
</g>
<path d="M4.26384 47.8378H0.5V25.5468H4.26384V47.8378Z" fill="white"/>
<path d="M46.8416 47.8378H43.3698L43.3373 31.1925L36.2964 45.5016H33.8628L26.8219 31.1925V47.8378H23.2852V25.5468H27.7628L35.0958 40.3425L42.4288 25.5468H46.8416V47.8378Z" fill="white"/>
<path d="M65.8633 25.5468H74.7537C77.5442 25.5468 79.7019 26.22 81.2431 27.5585C82.8006 28.8807 83.5793 30.7545 83.5793 33.1718C83.5793 35.6864 82.8006 37.6413 81.2431 39.0447C79.7019 40.4318 77.5442 41.1213 74.7537 41.1213H69.6271V47.8378H65.8633V25.5468ZM69.6271 28.9212V37.7468H74.5915C78.1769 37.7468 79.9777 36.2542 79.9777 33.2691C79.9777 30.3732 78.1769 28.9212 74.5915 28.9212H69.6271Z" fill="white"/>
<path d="M118.533 28.9212H106.365V34.9564H117.268V38.3308H106.365V44.4633H118.922V47.8378H102.602V25.5468H118.533V28.9212Z" fill="white"/>
<path d="M152.09 47.8378L148.002 41.0888C147.783 41.1132 147.45 41.1213 146.996 41.1213H141.707V47.8378H137.943V25.5468H146.996C149.827 25.5468 152.025 26.22 153.583 27.5585C155.156 28.8807 155.951 30.7545 155.951 33.1718C155.951 34.9482 155.546 36.4489 154.751 37.6819C153.972 38.9149 152.836 39.8153 151.344 40.375L156.341 47.8378H152.09ZM141.707 37.7468H146.996C150.606 37.7468 152.415 36.2542 152.415 33.2691C152.415 30.3732 150.606 28.9212 146.996 28.9212H141.707V37.7468Z" fill="white"/>
<path d="M179.125 47.8378H175.361V25.5468H179.125V47.8378Z" fill="white"/>
<path d="M217.519 25.5468V38.6229C217.519 41.5269 216.651 43.8144 214.923 45.5016C213.212 47.1726 210.843 48 207.818 48C204.808 48 202.44 47.1726 200.712 45.5016C199 43.8144 198.148 41.5269 198.148 38.6229V25.5468H201.88V38.6229C201.88 40.4886 202.407 41.9568 203.47 43.0356C204.549 44.0983 206.017 44.6255 207.883 44.6255C209.7 44.6255 211.127 44.0983 212.165 43.0356C213.22 41.9811 213.755 40.5048 213.755 38.6229V25.5468H217.519Z" fill="white"/>
<path d="M260.096 47.8374H256.624L256.591 31.1921L249.55 45.5012H247.117L240.076 31.1921V47.8374H236.539V25.5464H241.017L248.35 40.3422L255.683 25.5464H260.096V47.8374Z" fill="white"/>
</svg>
