<svg width="227" height="46" viewBox="0 0 227 46" fill="none" xmlns="http://www.w3.org/2000/svg">
<mask id="mask0_4439_3934" style="mask-type:luminance" maskUnits="userSpaceOnUse" x="0" y="2" width="14" height="14">
<path d="M0.125 2.06238H13.9416V15.8789H0.125V2.06238Z" fill="white"/>
</mask>
<g mask="url(#mask0_4439_3934)">
<path d="M7.03328 2.06238C6.12008 2.06238 5.23476 2.23665 4.39126 2.5852C3.5408 2.94073 2.7949 3.43567 2.1466 4.08397C1.49829 4.73228 1.00335 5.47818 0.647826 6.32864C0.299276 7.17213 0.125 8.05048 0.125 8.97066C0.125 9.88386 0.299276 10.7692 0.647826 11.6127C1.00335 12.4631 1.49829 13.209 2.1466 13.8573C2.7949 14.5056 3.5408 15.0006 4.39126 15.3491C5.23476 15.7047 6.12008 15.8789 7.03328 15.8789C7.94648 15.8789 8.8318 15.7047 9.67529 15.3491C10.5258 15.0006 11.2717 14.5056 11.92 13.8573C12.5683 13.209 13.0632 12.4631 13.4187 11.6127C13.7673 10.7692 13.9416 9.88386 13.9416 8.97066C13.9416 8.05048 13.7673 7.17213 13.4187 6.32864C13.0632 5.47818 12.5683 4.73228 11.92 4.08397C11.2717 3.43567 10.5258 2.94073 9.67529 2.5852C8.8318 2.23665 7.94648 2.06238 7.03328 2.06238Z" fill="white"/>
</g>
<mask id="mask1_4439_3934" style="mask-type:luminance" maskUnits="userSpaceOnUse" x="24" y="2" width="15" height="14">
<path d="M24.8398 2.06238H38.6564V15.8789H24.8398V2.06238Z" fill="white"/>
</mask>
<g mask="url(#mask1_4439_3934)">
<path d="M31.7481 2.06238C30.8349 2.06238 29.9496 2.23665 29.1061 2.5852C28.2626 2.94073 27.5097 3.43567 26.8684 4.08397C26.2201 4.73228 25.7182 5.47818 25.3696 6.32864C25.0141 7.17213 24.8398 8.05048 24.8398 8.97066C24.8398 9.88386 25.0141 10.7692 25.3696 11.6127C25.7182 12.4631 26.2201 13.209 26.8684 13.8573C27.5097 14.5056 28.2626 15.0006 29.1061 15.3491C29.9496 15.7047 30.8349 15.8789 31.7481 15.8789C32.6683 15.8789 33.5466 15.7047 34.3901 15.3491C35.2406 15.0006 35.9865 14.5056 36.6348 13.8573C37.2831 13.209 37.785 12.4631 38.1336 11.6127C38.4821 10.7692 38.6564 9.88386 38.6564 8.97066C38.6564 8.05048 38.4821 7.17213 38.1336 6.32864C37.785 5.47818 37.2831 4.73228 36.6348 4.08397C35.9865 3.43567 35.2406 2.94073 34.3901 2.5852C33.5466 2.23665 32.6683 2.06238 31.7481 2.06238Z" fill="white"/>
</g>
<mask id="mask2_4439_3934" style="mask-type:luminance" maskUnits="userSpaceOnUse" x="49" y="2" width="15" height="14">
<path d="M49.5527 2.06238H63.3693V15.8789H49.5527V2.06238Z" fill="white"/>
</mask>
<g mask="url(#mask2_4439_3934)">
<path d="M56.461 2.06238C55.5478 2.06238 54.6695 2.23665 53.819 2.5852C52.9755 2.94073 52.2296 3.43567 51.5813 4.08397C50.933 4.73228 50.4311 5.47818 50.0825 6.32864C49.734 7.17213 49.5527 8.05048 49.5527 8.97066C49.5527 9.88386 49.734 10.7692 50.0825 11.6127C50.4311 12.4631 50.933 13.209 51.5813 13.8573C52.2296 14.5056 52.9755 15.0006 53.819 15.3491C54.6695 15.7047 55.5478 15.8789 56.461 15.8789C57.3812 15.8789 58.2595 15.7047 59.11 15.3491C59.9535 15.0006 60.6994 14.5056 61.3477 13.8573C61.996 13.209 62.4979 12.4631 62.8465 11.6127C63.195 10.7692 63.3693 9.88386 63.3693 8.97066C63.3693 8.05048 63.195 7.17213 62.8465 6.32864C62.4979 5.47818 61.996 4.73228 61.3477 4.08397C60.6994 3.43567 59.9535 2.94073 59.11 2.5852C58.2595 2.23665 57.3812 2.06238 56.461 2.06238Z" fill="white"/>
</g>
<path d="M3.35955 43.1731H0.125V24.0167H3.35955V43.1731Z" fill="white"/>
<path d="M39.9509 43.1731H36.9673L36.9394 28.8686L30.8885 41.1654H28.7972L22.7464 28.8686V43.1731H19.707V24.0167H23.555L29.8568 36.7319L36.1586 24.0167H39.9509V43.1731Z" fill="white"/>
<path d="M56.2969 24.0167H63.9371C66.3351 24.0167 68.1894 24.5953 69.5139 25.7455C70.8524 26.8818 71.5216 28.4921 71.5216 30.5695C71.5216 32.7305 70.8524 34.4105 69.5139 35.6165C68.1894 36.8085 66.3351 37.4011 63.9371 37.4011H59.5314V43.1731H56.2969V24.0167ZM59.5314 26.9167V34.5011H63.7977C66.8789 34.5011 68.4264 33.2185 68.4264 30.6531C68.4264 28.1645 66.8789 26.9167 63.7977 26.9167H59.5314Z" fill="white"/>
<path d="M101.558 26.9167H91.1017V32.1031H100.471V35.003H91.1017V40.2731H101.893V43.1731H87.8672V24.0167H101.558V26.9167Z" fill="white"/>
<path d="M130.398 43.1731L126.884 37.3732C126.696 37.3941 126.41 37.4011 126.02 37.4011H121.475V43.1731H118.24V24.0167H126.02C128.453 24.0167 130.342 24.5953 131.68 25.7455C133.033 26.8818 133.716 28.4921 133.716 30.5695C133.716 32.0961 133.367 33.3858 132.684 34.4454C132.015 35.505 131.039 36.2787 129.756 36.7597L134.05 43.1731H130.398ZM121.475 34.5011H126.02C129.122 34.5011 130.677 33.2185 130.677 30.6531C130.677 28.1645 129.122 26.9167 126.02 26.9167H121.475V34.5011Z" fill="white"/>
<path d="M153.629 43.1731H150.395V24.0167H153.629V43.1731Z" fill="white"/>
<path d="M186.625 24.0167V35.254C186.625 37.7496 185.879 39.7155 184.395 41.1654C182.924 42.6015 180.888 43.3125 178.288 43.3125C175.702 43.3125 173.666 42.6015 172.181 41.1654C170.71 39.7155 169.979 37.7496 169.979 35.254V24.0167H173.185V35.254C173.185 36.8573 173.638 38.1191 174.552 39.0462C175.479 39.9594 176.74 40.4126 178.344 40.4126C179.905 40.4126 181.132 39.9594 182.024 39.0462C182.931 38.14 183.391 36.8713 183.391 35.254V24.0167H186.625Z" fill="white"/>
<path d="M223.216 43.1729H220.233L220.205 28.8684L214.154 41.1652H212.063L206.012 28.8684V43.1729H202.973V24.0165H206.821L213.122 36.7317L219.424 24.0165H223.216V43.1729Z" fill="white"/>
</svg>
