<svg width="32" height="32" viewBox="0 0 32 32" fill="none" xmlns="http://www.w3.org/2000/svg">
<g clip-path="url(#clip0_4281_1388)">
<path d="M30.9374 7.14523C30.8483 5.561 30.1789 4.06508 29.0569 2.94308C27.9349 1.82108 26.439 1.15161 24.8548 1.0625C18.9564 0.729167 13.0439 0.729167 7.1455 1.0625C5.56125 1.15166 4.06533 1.82114 2.9433 2.94312C1.82127 4.0651 1.15173 5.56099 1.0625 7.14523C0.729167 13.0437 0.729167 18.9563 1.0625 24.8548C1.15174 26.4391 1.82128 27.935 2.94331 29.0569C4.06534 30.1789 5.56126 30.8484 7.1455 30.9375C13.0439 31.2716 18.9564 31.2716 24.8548 30.9375C26.439 30.8484 27.9349 30.1789 29.0569 29.057C30.1789 27.935 30.8483 26.4391 30.9374 24.8548C31.2708 18.9563 31.2708 13.0437 30.9374 7.14523Z" fill="url(#paint0_linear_4281_1388)"/>
<path d="M30.9374 7.14523C30.8483 5.561 30.1789 4.06508 29.0569 2.94308C27.9349 1.82108 26.439 1.15161 24.8548 1.0625C18.9564 0.729167 13.0439 0.729167 7.1455 1.0625C5.56125 1.15166 4.06533 1.82114 2.9433 2.94312C1.82127 4.0651 1.15173 5.56099 1.0625 7.14523C0.729167 13.0437 0.729167 18.9563 1.0625 24.8548C1.15174 26.4391 1.82128 27.935 2.94331 29.0569C4.06534 30.1789 5.56126 30.8484 7.1455 30.9375C13.0439 31.2716 18.9564 31.2716 24.8548 30.9375C26.439 30.8484 27.9349 30.1789 29.0569 29.057C30.1789 27.935 30.8483 26.4391 30.9374 24.8548C31.2708 18.9563 31.2708 13.0437 30.9374 7.14523Z" fill="url(#paint1_linear_4281_1388)"/>
<path d="M19.489 15.6846C16.6826 15.6846 14.3998 17.9674 14.3998 20.7738C14.3998 23.58 16.6828 25.8628 19.489 25.8628C22.295 25.8628 24.5779 23.5799 24.5779 20.7738C24.5779 17.9676 22.2953 15.6846 19.489 15.6846ZM21.7135 21.424L19.489 21.424C19.13 21.424 18.839 21.1328 18.839 20.7738L18.839 17.8374C18.839 17.4784 19.13 17.1874 19.489 17.1874C19.8478 17.1874 20.139 17.4786 20.139 17.8374L20.139 20.1238L21.7135 20.1238C22.0727 20.1238 22.3637 20.4146 22.3637 20.7738C22.3637 21.1328 22.0725 21.424 21.7135 21.424ZM20.3158 8.03376L18.8874 8.03376V6.8521C18.8874 6.45786 19.207 6.13782 19.6016 6.13782C19.9958 6.13782 20.3158 6.45782 20.3158 6.8521V8.03376ZM12.2182 8.03376L10.7895 8.03376L10.7895 6.8521C10.7895 6.45786 11.1097 6.13782 11.5037 6.13782C11.8983 6.13782 12.2182 6.45782 12.2182 6.8521L12.2182 8.03376ZM13.1391 21.4812L13.1328 21.424H10.9876C10.6286 21.424 10.3377 21.1328 10.3377 20.7738C10.3377 20.4146 10.6284 20.1238 10.9876 20.1238H13.1328L13.1391 20.0666C13.25 19.062 13.5989 18.1018 14.1562 17.2588L14.2221 17.159H10.9877C10.6285 17.159 10.3377 16.8683 10.3377 16.5091C10.3377 16.1499 10.6285 15.8591 10.9877 15.8591L15.4103 15.8591L15.4282 15.8444C16.5749 14.898 18.0019 14.3845 19.4891 14.3845C20.9881 14.3845 22.4255 14.9067 23.5761 15.867L23.6815 15.955L23.6815 10.4224C23.6815 9.29634 22.7657 8.38001 21.6395 8.38001L20.2516 8.38001V9.03666C20.2516 9.39563 19.9607 9.68684 19.6016 9.68684C19.2424 9.68684 18.9517 9.39581 18.9517 9.03666V8.38009L12.1539 8.38009V9.03675C12.1539 9.39594 11.8629 9.68692 11.5037 9.68692C11.1448 9.68692 10.8537 9.39559 10.8537 9.03675V8.38009H9.46579C8.33959 8.38009 7.42383 9.29639 7.42383 10.4225L7.42383 22.5957C7.42383 23.7218 8.33963 24.6381 9.46579 24.6381L14.4032 24.6381L14.3285 24.5359C13.6717 23.6379 13.2615 22.5872 13.1391 21.4812ZM10.9876 11.5944L20.1177 11.5944C20.4766 11.5944 20.7677 11.8855 20.7677 12.2444C20.7677 12.6036 20.4769 12.8944 20.1177 12.8944L10.9876 12.8944C10.6284 12.8944 10.3377 12.6036 10.3377 12.2444C10.3377 11.8854 10.6286 11.5944 10.9876 11.5944Z" fill="url(#paint2_linear_4281_1388)"/>
</g>
<defs>
<linearGradient id="paint0_linear_4281_1388" x1="16" y1="1.2343" x2="16" y2="30.817" gradientUnits="userSpaceOnUse">
<stop stop-color="#FFEEF1"/>
<stop offset="1" stop-color="#FFC6CF"/>
</linearGradient>
<linearGradient id="paint1_linear_4281_1388" x1="16" y1="1.2343" x2="16" y2="30.817" gradientUnits="userSpaceOnUse">
<stop stop-color="#FFF8F0"/>
<stop offset="1" stop-color="#FFD19A"/>
</linearGradient>
<linearGradient id="paint2_linear_4281_1388" x1="8.10611" y1="24.1228" x2="23.1663" y2="9.06255" gradientUnits="userSpaceOnUse">
<stop stop-color="#FFBB32"/>
<stop offset="1" stop-color="#FC4422"/>
</linearGradient>
<clipPath id="clip0_4281_1388">
<rect width="32" height="32" fill="white"/>
</clipPath>
</defs>
</svg>
