<svg width="227" height="67" viewBox="0 0 227 67" fill="none" xmlns="http://www.w3.org/2000/svg">
<g clip-path="url(#clip0_4439_3984)">
<path d="M32.3431 65.4547C49.8325 65.4547 64.0105 50.9816 64.0105 33.1282C64.0105 15.2747 49.8325 0.801636 32.3431 0.801636C14.8537 0.801636 0.675781 15.2747 0.675781 33.1282C0.675781 50.9816 14.8537 65.4547 32.3431 65.4547Z" fill="white"/>
<path d="M36.9768 29.6208C36.5747 29.6208 36.2088 29.6577 35.879 29.7314C35.5491 29.8051 35.245 29.9628 34.9667 30.2048C34.6883 30.4364 34.41 30.7784 34.1317 31.2309C33.8533 31.6729 33.5647 32.2516 33.2657 32.9671C32.9153 33.8195 32.5441 34.6455 32.1525 35.4454C31.7505 36.245 31.2865 36.9659 30.7609 37.6077C30.2351 38.2497 29.6166 38.76 28.9053 39.1388C28.1838 39.5072 27.3384 39.6913 26.3695 39.6913C25.4211 39.6913 24.5604 39.5177 23.7872 39.1705C23.0141 38.8127 22.3544 38.3076 21.808 37.6551C21.2514 37.0027 20.8235 36.2398 20.5247 35.3664C20.2257 34.4824 20.0762 33.4985 20.0762 32.4147C20.0762 30.9415 20.3752 29.6682 20.973 28.5948C21.5709 27.5109 22.3904 26.6744 23.4316 26.0851C24.4728 25.4853 25.6685 25.1855 27.0188 25.1855V29.7944C26.3798 29.7944 25.818 29.8892 25.3335 30.0786C24.8387 30.2575 24.4521 30.5468 24.1738 30.9467C23.8955 31.3466 23.7563 31.8622 23.7563 32.4935C23.7563 33.083 23.8748 33.5722 24.1119 33.9616C24.3387 34.3403 24.6532 34.6245 25.0552 34.8139C25.4468 34.9928 25.8902 35.0822 26.385 35.0822C26.756 35.0822 27.091 34.9928 27.39 34.8139C27.6786 34.6245 27.9415 34.3667 28.1787 34.0405C28.4053 33.7143 28.627 33.3301 28.8435 32.8882C29.0599 32.4358 29.2713 31.9412 29.4774 31.4045C29.8795 30.3627 30.3228 29.4419 30.8072 28.6422C31.2814 27.8424 31.8175 27.1742 32.4153 26.6376C33.0029 26.101 33.6678 25.6958 34.41 25.4221C35.1522 25.1486 35.9974 25.0118 36.9459 25.0118C37.8839 25.0118 38.7396 25.1802 39.5127 25.5169C40.2754 25.8432 40.9352 26.3219 41.4919 26.9533C42.0383 27.5846 42.4609 28.3475 42.7597 29.242C43.0587 30.1259 43.2082 31.1151 43.2082 32.2095C43.2082 33.2723 43.0639 34.2773 42.7752 35.2243C42.4763 36.1714 42.0278 37.0079 41.43 37.7341C40.8218 38.4496 40.0539 39.0126 39.126 39.423C38.188 39.8334 37.0798 40.0386 35.8016 40.0386V35.4137C36.482 35.4137 37.0644 35.3453 37.5489 35.2086C38.0231 35.0717 38.4046 34.8613 38.6931 34.5771C38.9714 34.2931 39.1828 33.9458 39.3271 33.5354C39.4611 33.1145 39.5281 32.6356 39.5281 32.099C39.5281 31.4887 39.4148 31.0046 39.1879 30.6469C38.9611 30.2785 38.6571 30.0154 38.2757 29.8576C37.8942 29.6997 37.4613 29.6208 36.9768 29.6208Z" fill="#3328BF"/>
<path d="M84.0239 36.8427C84.0239 36.5007 83.9939 36.1893 83.9337 35.9087C83.8735 35.6281 83.7447 35.3694 83.5471 35.1326C83.3581 34.8959 83.0789 34.6591 82.7096 34.4223C82.3487 34.1856 81.8764 33.94 81.2922 33.6857C80.5963 33.3876 79.922 33.0719 79.2692 32.7387C78.6163 32.3967 78.0279 32.002 77.5039 31.5548C76.9798 31.1077 76.5632 30.5814 76.254 29.9764C75.9532 29.3626 75.803 28.6434 75.803 27.8191C75.803 27.0124 75.9447 26.2802 76.2282 25.6225C76.5202 24.9648 76.9326 24.4035 77.4652 23.9388C77.9978 23.4653 78.6206 23.1013 79.3336 22.847C80.0552 22.5927 80.8584 22.4656 81.7432 22.4656C82.9458 22.4656 83.9853 22.7199 84.8614 23.2285C85.7462 23.7371 86.4292 24.4342 86.9103 25.32C87.3999 26.2056 87.6447 27.2228 87.6447 28.3716H83.8821C83.8821 27.828 83.8049 27.35 83.6503 26.9378C83.5042 26.517 83.268 26.1881 82.9416 25.9513C82.6151 25.7145 82.1941 25.5963 81.6787 25.5963C81.1976 25.5963 80.7982 25.697 80.4804 25.8988C80.1711 26.0917 79.9392 26.3592 79.7846 26.7011C79.6385 27.0344 79.5656 27.4114 79.5656 27.8323C79.5656 28.148 79.6385 28.433 79.7846 28.6873C79.9392 28.9329 80.1497 29.1565 80.416 29.3581C80.6822 29.5511 80.9957 29.7396 81.3566 29.9237C81.7259 30.108 82.1297 30.2876 82.5679 30.463C83.4183 30.805 84.1699 31.1821 84.8227 31.5943C85.4756 31.9977 86.0211 32.4537 86.4593 32.9623C86.8974 33.4621 87.2281 34.0277 87.4514 34.6591C87.6748 35.2904 87.7864 36.0096 87.7864 36.8163C87.7864 37.6143 87.6491 38.3421 87.3741 38.9998C87.1078 39.6487 86.717 40.21 86.2016 40.6835C85.6861 41.1483 85.0633 41.5078 84.3331 41.7621C83.6116 42.0164 82.8041 42.1435 81.9107 42.1435C81.0431 42.1435 80.2227 42.0208 79.4496 41.7753C78.6764 41.521 77.9935 41.1395 77.4007 40.6309C76.8166 40.1136 76.357 39.4602 76.022 38.671C75.687 37.8729 75.5195 36.9303 75.5195 35.843H79.2949C79.2949 36.4217 79.3508 36.9171 79.4624 37.3293C79.5741 37.7327 79.7459 38.0572 79.9779 38.3027C80.2097 38.5394 80.4933 38.7192 80.8283 38.8419C81.1719 38.956 81.5627 39.013 82.0009 39.013C82.4991 39.013 82.8942 38.9165 83.1863 38.7235C83.487 38.5306 83.7017 38.272 83.8306 37.9475C83.9594 37.6231 84.0239 37.2548 84.0239 36.8427ZM93.7911 30.5946V41.8805H90.1703V27.6482H93.572L93.7911 30.5946ZM93.2757 34.2777L92.2834 34.3039C92.2663 33.3042 92.3522 32.3835 92.5411 31.5416C92.7302 30.6998 93.0136 29.9676 93.3917 29.3451C93.7781 28.7224 94.2636 28.24 94.8477 27.898C95.4318 27.5561 96.1148 27.3851 96.8964 27.3851C97.4033 27.3851 97.8715 27.4816 98.301 27.6744C98.7305 27.8586 99.1042 28.1523 99.422 28.5557C99.7399 28.9504 99.9847 29.4678 100.156 30.108C100.328 30.7393 100.414 31.4979 100.414 32.3835V41.8805H96.8063V32.8307C96.8063 32.1994 96.7462 31.717 96.626 31.3838C96.5056 31.0418 96.3338 30.805 96.1104 30.6735C95.8872 30.5332 95.6122 30.463 95.2858 30.463C94.9422 30.463 94.6415 30.5596 94.3838 30.7525C94.1261 30.9454 93.9156 31.2172 93.7524 31.568C93.5978 31.91 93.4776 32.3133 93.3917 32.7781C93.3143 33.2428 93.2757 33.7427 93.2757 34.2777ZM100.066 33.9093L98.7648 34.0804C98.7477 33.1421 98.8293 32.2695 99.0097 31.4627C99.1901 30.6473 99.4693 29.9369 99.8473 29.3319C100.225 28.7181 100.698 28.24 101.265 27.898C101.84 27.5561 102.506 27.3851 103.262 27.3851C103.829 27.3851 104.344 27.4816 104.808 27.6744C105.272 27.8675 105.667 28.1787 105.994 28.6084C106.329 29.0293 106.582 29.5862 106.754 30.2789C106.934 30.9716 107.024 31.8135 107.024 32.8044V41.8805H103.404V32.8176C103.404 32.1774 103.344 31.6863 103.223 31.3443C103.103 31.0023 102.931 30.77 102.708 30.6473C102.485 30.5244 102.218 30.463 101.909 30.463C101.6 30.463 101.329 30.5507 101.097 30.7262C100.874 30.9016 100.685 31.147 100.53 31.4627C100.375 31.7697 100.26 32.1336 100.182 32.5545C100.105 32.9667 100.066 33.4182 100.066 33.9093ZM115.89 38.6053V32.0283C115.89 31.5986 115.838 31.2566 115.735 31.0023C115.641 30.748 115.495 30.5639 115.297 30.45C115.108 30.3271 114.876 30.2658 114.601 30.2658C114.292 30.2658 114.034 30.3316 113.828 30.463C113.622 30.5946 113.467 30.7832 113.364 31.0287C113.27 31.2743 113.222 31.568 113.222 31.91H109.602C109.602 31.2961 109.717 30.7173 109.949 30.1737C110.181 29.6212 110.521 29.139 110.967 28.7268C111.423 28.3059 111.964 27.977 112.591 27.7403C113.218 27.5035 113.923 27.3851 114.704 27.3851C115.632 27.3851 116.457 27.5473 117.178 27.8718C117.9 28.1875 118.471 28.6917 118.892 29.3845C119.313 30.0773 119.523 30.9761 119.523 32.081V38.421C119.523 39.2191 119.562 39.868 119.639 40.3679C119.725 40.8676 119.85 41.2974 120.013 41.6569V41.8805H116.379C116.216 41.4858 116.092 40.9947 116.006 40.4072C115.928 39.8109 115.89 39.2103 115.89 38.6053ZM116.328 33.1859L116.341 35.3956H115.013C114.67 35.3956 114.369 35.4528 114.111 35.5667C113.862 35.6807 113.652 35.843 113.48 36.0534C113.308 36.2551 113.179 36.4918 113.094 36.7637C113.016 37.0355 112.978 37.3249 112.978 37.6318C112.978 37.9738 113.025 38.2633 113.119 38.4999C113.214 38.7367 113.356 38.9165 113.544 39.0392C113.733 39.1621 113.957 39.2234 114.215 39.2234C114.61 39.2234 114.953 39.1401 115.245 38.9735C115.537 38.8069 115.752 38.6053 115.89 38.3685C116.036 38.1317 116.083 37.9124 116.031 37.7108L116.856 39.1446C116.753 39.4689 116.611 39.8066 116.431 40.1573C116.259 40.5081 116.04 40.8326 115.774 41.1308C115.507 41.4289 115.177 41.6744 114.782 41.8673C114.395 42.0515 113.935 42.1435 113.403 42.1435C112.655 42.1435 111.972 41.9682 111.354 41.6174C110.735 41.2667 110.246 40.7756 109.885 40.1441C109.533 39.5128 109.357 38.763 109.357 37.8949C109.357 37.1759 109.468 36.5269 109.692 35.9482C109.924 35.3606 110.267 34.8652 110.723 34.4618C111.178 34.0496 111.753 33.7339 112.449 33.5148C113.145 33.2955 113.961 33.1859 114.897 33.1859H116.328ZM125.799 30.8182V41.8805H122.191V27.6482H125.592L125.799 30.8182ZM129.084 27.543L129.033 31.2129C128.87 31.1777 128.672 31.1514 128.44 31.1339C128.217 31.1164 128.019 31.1077 127.847 31.1077C127.444 31.1077 127.1 31.1734 126.817 31.3049C126.533 31.4277 126.297 31.6163 126.108 31.8706C125.927 32.1161 125.79 32.4229 125.696 32.7913C125.601 33.1596 125.545 33.5761 125.528 34.0409L124.845 33.7778C124.845 32.8483 124.914 31.9977 125.051 31.2259C125.197 30.4455 125.412 29.7703 125.696 29.2003C125.979 28.6215 126.318 28.1743 126.713 27.8586C127.117 27.543 127.572 27.3851 128.079 27.3851C128.251 27.3851 128.432 27.4026 128.621 27.4377C128.818 27.4641 128.973 27.4991 129.084 27.543ZM137.653 27.6482V30.4236H130.54V27.6482H137.653ZM132.177 24.1362H135.772V37.5397C135.772 37.9344 135.811 38.2369 135.888 38.4474C135.965 38.6578 136.081 38.8069 136.235 38.8946C136.399 38.9735 136.614 39.013 136.881 39.013C137.06 39.013 137.228 39.0042 137.382 38.9867C137.538 38.9603 137.653 38.934 137.73 38.9078V41.7883C137.447 41.9024 137.146 41.9901 136.829 42.0515C136.519 42.1128 136.15 42.1435 135.721 42.1435C134.999 42.1435 134.372 42.0032 133.839 41.7226C133.315 41.442 132.906 40.9947 132.615 40.3809C132.323 39.7584 132.177 38.9428 132.177 37.9344V24.1362ZM153.864 36.8427C153.864 36.5007 153.833 36.1893 153.773 35.9087C153.713 35.6281 153.584 35.3694 153.386 35.1326C153.197 34.8959 152.919 34.6591 152.549 34.4223C152.188 34.1856 151.716 33.94 151.131 33.6857C150.436 33.3876 149.761 33.0719 149.108 32.7387C148.455 32.3967 147.867 32.002 147.343 31.5548C146.819 31.1077 146.402 30.5814 146.093 29.9764C145.792 29.3626 145.642 28.6434 145.642 27.8191C145.642 27.0124 145.785 26.2802 146.067 25.6225C146.36 24.9648 146.771 24.4035 147.305 23.9388C147.838 23.4653 148.46 23.1013 149.173 22.847C149.895 22.5927 150.698 22.4656 151.582 22.4656C152.786 22.4656 153.824 22.7199 154.7 23.2285C155.586 23.7371 156.269 24.4342 156.749 25.32C157.239 26.2056 157.484 27.2228 157.484 28.3716H153.721C153.721 27.828 153.645 27.35 153.489 26.9378C153.344 26.517 153.108 26.1881 152.78 25.9513C152.454 25.7145 152.034 25.5963 151.518 25.5963C151.037 25.5963 150.638 25.697 150.32 25.8988C150.011 26.0917 149.779 26.3592 149.624 26.7011C149.478 27.0344 149.405 27.4114 149.405 27.8323C149.405 28.148 149.478 28.433 149.624 28.6873C149.779 28.9329 149.988 29.1565 150.255 29.3581C150.521 29.5511 150.835 29.7396 151.196 29.9237C151.565 30.108 151.969 30.2876 152.407 30.463C153.258 30.805 154.009 31.1821 154.662 31.5943C155.315 31.9977 155.86 32.4537 156.298 32.9623C156.736 33.4621 157.067 34.0277 157.29 34.6591C157.515 35.2904 157.625 36.0096 157.625 36.8163C157.625 37.6143 157.488 38.3421 157.214 38.9998C156.947 39.6487 156.557 40.21 156.041 40.6835C155.525 41.1483 154.902 41.5078 154.172 41.7621C153.451 42.0164 152.643 42.1435 151.75 42.1435C150.883 42.1435 150.062 42.0208 149.289 41.7753C148.516 41.521 147.832 41.1395 147.24 40.6309C146.655 40.1136 146.196 39.4602 145.861 38.671C145.526 37.8729 145.358 36.9303 145.358 35.843H149.135C149.135 36.4217 149.19 36.9171 149.302 37.3293C149.413 37.7327 149.585 38.0572 149.817 38.3027C150.049 38.5394 150.333 38.7192 150.668 38.8419C151.011 38.956 151.402 39.013 151.84 39.013C152.338 39.013 152.734 38.9165 153.026 38.7235C153.327 38.5306 153.542 38.272 153.67 37.9475C153.799 37.6231 153.864 37.2548 153.864 36.8427ZM163.514 21.6764V41.8805H159.907V21.6764H163.514ZM162.998 34.2777L162.019 34.3039C162.019 33.3042 162.118 32.3835 162.316 31.5416C162.522 30.6998 162.819 29.9676 163.206 29.3451C163.592 28.7224 164.061 28.24 164.609 27.898C165.168 27.5561 165.782 27.3851 166.453 27.3851C167.028 27.3851 167.552 27.486 168.024 27.6876C168.497 27.8893 168.904 28.205 169.249 28.6347C169.601 29.0644 169.871 29.6299 170.06 30.3316C170.249 31.033 170.344 31.8881 170.344 32.8965V41.8805H166.723V32.8701C166.723 32.2563 166.663 31.774 166.542 31.4232C166.422 31.0725 166.242 30.827 166.001 30.6867C165.761 30.5376 165.46 30.463 165.099 30.463C164.712 30.463 164.382 30.5639 164.107 30.7655C163.841 30.9586 163.626 31.2259 163.463 31.568C163.299 31.91 163.179 32.3133 163.103 32.7781C163.034 33.2428 162.998 33.7427 162.998 34.2777ZM179.724 38.4605V27.6482H183.345V41.8805H179.943L179.724 38.4605ZM180.137 35.5272L181.141 35.501C181.141 36.4568 181.051 37.3425 180.871 38.1579C180.691 38.9648 180.421 39.6662 180.059 40.2625C179.699 40.8588 179.248 41.3237 178.707 41.6569C178.166 41.9814 177.526 42.1435 176.787 42.1435C176.219 42.1435 175.696 42.0471 175.214 41.8542C174.742 41.6524 174.334 41.3412 173.991 40.9202C173.646 40.4906 173.376 39.9425 173.178 39.276C172.989 38.6008 172.894 37.7897 172.894 36.8427V27.6482H176.516V36.8821C176.516 37.2679 176.551 37.6011 176.619 37.8817C176.688 38.1536 176.782 38.3772 176.903 38.5526C177.023 38.728 177.164 38.8551 177.328 38.934C177.491 39.0042 177.676 39.0392 177.882 39.0392C178.448 39.0392 178.895 38.8901 179.221 38.5921C179.556 38.2851 179.793 37.8686 179.931 37.3425C180.068 36.8075 180.137 36.2025 180.137 35.5272ZM192.056 27.6482V30.4236H184.942V27.6482H192.056ZM186.58 24.1362H190.174V37.5397C190.174 37.9344 190.212 38.2369 190.29 38.4474C190.368 38.6578 190.484 38.8069 190.639 38.8946C190.801 38.9735 191.016 39.013 191.283 39.013C191.463 39.013 191.631 39.0042 191.785 38.9867C191.94 38.9603 192.056 38.934 192.134 38.9078V41.7883C191.85 41.9024 191.549 41.9901 191.231 42.0515C190.922 42.1128 190.553 42.1435 190.123 42.1435C189.401 42.1435 188.774 42.0032 188.241 41.7226C187.717 41.442 187.31 40.9947 187.018 40.3809C186.725 39.7584 186.58 38.9428 186.58 37.9344V24.1362ZM200.148 27.6482V30.4236H193.035V27.6482H200.148ZM194.671 24.1362H198.267V37.5397C198.267 37.9344 198.305 38.2369 198.383 38.4474C198.459 38.6578 198.575 38.8069 198.731 38.8946C198.893 38.9735 199.108 39.013 199.375 39.013C199.556 39.013 199.723 39.0042 199.878 38.9867C200.032 38.9603 200.148 38.934 200.225 38.9078V41.7883C199.942 41.9024 199.641 41.9901 199.323 42.0515C199.013 42.1128 198.644 42.1435 198.215 42.1435C197.493 42.1435 196.867 42.0032 196.334 41.7226C195.81 41.442 195.402 40.9947 195.109 40.3809C194.817 39.7584 194.671 38.9428 194.671 37.9344V24.1362ZM207.776 42.1435C206.822 42.1435 205.976 41.9944 205.237 41.6964C204.508 41.3981 203.889 40.9685 203.382 40.4072C202.875 39.8373 202.489 39.1489 202.222 38.3421C201.956 37.5354 201.823 36.6146 201.823 35.5799V34.4091C201.823 33.2517 201.952 32.2388 202.209 31.3707C202.468 30.4937 202.832 29.7571 203.304 29.1608C203.777 28.5645 204.357 28.1218 205.045 27.8323C205.74 27.5342 206.526 27.3851 207.403 27.3851C208.279 27.3851 209.048 27.5342 209.709 27.8323C210.379 28.1218 210.933 28.5602 211.372 29.1477C211.81 29.7265 212.139 30.4455 212.364 31.3049C212.587 32.1643 212.699 33.1639 212.699 34.3039V35.9876H203.356V33.3964H209.155V33.0675C209.155 32.4887 209.094 32.0065 208.974 31.6206C208.854 31.2259 208.665 30.9322 208.408 30.7393C208.149 30.5464 207.806 30.45 207.376 30.45C207.016 30.45 206.711 30.5244 206.462 30.6735C206.212 30.8226 206.014 31.055 205.869 31.3707C205.723 31.6863 205.616 32.0985 205.547 32.6071C205.477 33.1069 205.443 33.7077 205.443 34.4091V35.5799C205.443 36.2375 205.5 36.79 205.611 37.2372C205.723 37.6757 205.886 38.0352 206.102 38.3158C206.325 38.5876 206.595 38.7849 206.913 38.9078C207.231 39.0217 207.6 39.0787 208.021 39.0787C208.656 39.0787 209.227 38.9648 209.734 38.7367C210.25 38.4999 210.688 38.1799 211.05 37.7765L212.492 40.0127C212.242 40.3459 211.899 40.6791 211.461 41.0124C211.023 41.3456 210.499 41.6174 209.89 41.8278C209.279 42.0383 208.574 42.1435 207.776 42.1435ZM218.394 30.8182V41.8805H214.786V27.6482H218.188L218.394 30.8182ZM221.679 27.543L221.628 31.2129C221.464 31.1777 221.268 31.1514 221.035 31.1339C220.812 31.1164 220.614 31.1077 220.443 31.1077C220.039 31.1077 219.695 31.1734 219.411 31.3049C219.129 31.4277 218.893 31.6163 218.703 31.8706C218.523 32.1161 218.385 32.4229 218.291 32.7913C218.196 33.1596 218.14 33.5761 218.123 34.0409L217.44 33.7778C217.44 32.8483 217.508 31.9977 217.647 31.2259C217.792 30.4455 218.007 29.7703 218.291 29.2003C218.575 28.6215 218.914 28.1743 219.308 27.8586C219.712 27.543 220.167 27.3851 220.674 27.3851C220.847 27.3851 221.026 27.4026 221.216 27.4377C221.413 27.4641 221.568 27.4991 221.679 27.543Z" fill="white"/>
</g>
<defs>
<clipPath id="clip0_4439_3984">
<rect width="226.525" height="66" fill="white" transform="translate(0 0.124878)"/>
</clipPath>
</defs>
</svg>
