<svg width="286" height="56" viewBox="0 0 286 56" fill="none" xmlns="http://www.w3.org/2000/svg">
<rect x="231.667" y="1.66667" width="52.6665" height="52.6665" rx="26.3333" fill="#ED1D24"/>
<rect x="231.667" y="1.66667" width="52.6665" height="52.6665" rx="26.3333" stroke="white" stroke-width="2.66666"/>
<g clip-path="url(#clip0_4266_3992)">
<rect width="34.1024" height="23.9442" transform="translate(241.098 16.0209)" fill="#ED1D24"/>
<path d="M274.487 19.76C274.095 18.2882 272.94 17.1292 271.472 16.7358C268.813 16.021 258.149 16.021 258.149 16.021C258.149 16.021 247.485 16.021 244.825 16.7358C243.358 17.1292 242.202 18.2882 241.81 19.76C241.098 22.4275 241.098 27.9931 241.098 27.9931C241.098 27.9931 241.098 33.5586 241.81 36.2264C242.202 37.698 243.358 38.857 244.825 39.2505C247.485 39.9652 258.149 39.9652 258.149 39.9652C258.149 39.9652 268.813 39.9652 271.472 39.2505C272.94 38.857 274.095 37.698 274.487 36.2264C275.2 33.5586 275.2 27.9931 275.2 27.9931C275.2 27.9931 275.2 22.4275 274.487 19.76Z" fill="white"/>
<path d="M254.662 33.046L263.575 27.9931L254.662 22.9397V33.046Z" fill="#ED1D24"/>
</g>
<rect x="193.333" y="1.66667" width="52.6665" height="52.6665" rx="26.3333" fill="#2B2B2B"/>
<rect x="193.333" y="1.66667" width="52.6665" height="52.6665" rx="26.3333" stroke="white" stroke-width="2.66666"/>
<g clip-path="url(#clip1_4266_3992)">
<path d="M228.186 14.667H232.746L222.786 26.127L234.546 41.667H225.306L218.106 32.247L209.826 41.667H205.266L215.946 29.427L204.666 14.667H214.146L220.686 23.307L228.186 14.667ZM226.566 38.907H229.086L212.766 17.247H210.006L226.566 38.907Z" fill="white"/>
</g>
<rect x="154.999" y="1.66667" width="52.6665" height="52.6665" rx="26.3333" fill="#0A66C2"/>
<rect x="154.999" y="1.66667" width="52.6665" height="52.6665" rx="26.3333" stroke="white" stroke-width="2.66666"/>
<g clip-path="url(#clip2_4266_3992)">
<path d="M199.225 42.0306C199.3 42.0314 199.374 42.0169 199.442 41.9882C199.511 41.9595 199.573 41.9172 199.624 41.8638C199.676 41.8104 199.715 41.7471 199.741 41.6779C199.767 41.6086 199.778 41.5349 199.774 41.4612C199.774 41.0574 199.528 40.8644 199.023 40.8644H198.207V42.9787H198.514V42.0571H198.891L198.899 42.0683L199.485 42.9787H199.813L199.183 42.0365L199.225 42.0306ZM198.87 41.8188H198.515V41.1041H198.966C199.199 41.1041 199.464 41.1417 199.464 41.4437C199.464 41.791 199.195 41.8188 198.869 41.8188" fill="white"/>
<path d="M191.222 39.3809H186.872V32.6351C186.872 31.0265 186.843 28.9557 184.609 28.9557C182.343 28.9557 181.997 30.7083 181.997 32.518V39.3805H177.646V25.5083H181.823V27.4041H181.881C182.299 26.6965 182.903 26.1144 183.629 25.7198C184.354 25.3252 185.174 25.1328 186.002 25.1632C190.411 25.1632 191.224 28.035 191.224 31.7709L191.222 39.3809ZM172.738 23.6121C172.238 23.6122 171.75 23.4656 171.335 23.191C170.92 22.9164 170.596 22.5261 170.405 22.0693C170.214 21.6126 170.164 21.11 170.261 20.6251C170.358 20.1402 170.599 19.6947 170.952 19.3451C171.305 18.9954 171.754 18.7572 172.244 18.6607C172.734 18.5642 173.241 18.6136 173.703 18.8027C174.164 18.9918 174.558 19.3121 174.836 19.7232C175.113 20.1342 175.262 20.6175 175.262 21.1119C175.262 21.4401 175.196 21.7652 175.07 22.0685C174.943 22.3718 174.757 22.6474 174.523 22.8796C174.288 23.1118 174.01 23.2959 173.704 23.4216C173.397 23.5473 173.069 23.612 172.738 23.6121ZM174.913 39.3809H170.558V25.5083H174.913V39.3809ZM193.391 14.6124H168.372C167.804 14.606 167.257 14.8232 166.85 15.2161C166.444 15.609 166.212 16.1455 166.205 16.7078V41.5836C166.212 42.1462 166.444 42.6831 166.85 43.0764C167.256 43.4698 167.804 43.6873 168.372 43.6813H193.391C193.96 43.6884 194.509 43.4715 194.917 43.0781C195.325 42.6848 195.558 42.1473 195.566 41.5836V16.706C195.558 16.1426 195.325 15.6055 194.917 15.2126C194.509 14.8197 193.96 14.6031 193.391 14.6106" fill="white"/>
<path d="M198.909 39.9225C198.379 39.9276 197.874 40.14 197.502 40.5132C197.13 40.8865 196.923 41.3903 196.926 41.9144C196.928 42.4385 197.14 42.9402 197.516 43.31C197.891 43.6797 198.399 43.8872 198.928 43.8872C199.457 43.8872 199.965 43.6797 200.34 43.31C200.715 42.9402 200.927 42.4385 200.93 41.9144C200.933 41.3903 200.725 40.8865 200.354 40.5132C199.982 40.14 199.476 39.9276 198.947 39.9225H198.909ZM198.909 43.6603C198.561 43.666 198.22 43.5696 197.929 43.3834C197.637 43.1972 197.407 42.9295 197.269 42.6141C197.131 42.2987 197.09 41.9498 197.152 41.6115C197.214 41.2733 197.376 40.9608 197.618 40.7137C197.859 40.4666 198.169 40.2959 198.508 40.2232C198.848 40.1505 199.201 40.1791 199.524 40.3054C199.847 40.4317 200.125 40.6499 200.323 40.9325C200.52 41.2152 200.629 41.5495 200.635 41.8933C200.635 41.9031 200.635 41.9126 200.635 41.9224C200.644 42.3734 200.473 42.8097 200.158 43.1354C199.843 43.4611 199.41 43.6496 198.954 43.6594H198.909" fill="white"/>
</g>
<rect x="116.667" y="1.66667" width="52.6665" height="52.6665" rx="26.3333" fill="#FF1616"/>
<rect x="116.667" y="1.66667" width="52.6665" height="52.6665" rx="26.3333" stroke="white" stroke-width="2.66666"/>
<path d="M153.706 23.5408C152.687 23.5408 151.748 23.8845 150.998 24.4618C148.957 23.1985 146.38 22.404 143.56 22.2984C143.56 22.2939 143.56 22.2909 143.56 22.2864C143.56 20.3968 144.965 18.8285 146.786 18.5711C147.116 19.9712 148.373 21.0143 149.875 21.0143C151.628 21.0143 153.049 19.5933 153.049 17.8405C153.049 16.0877 151.628 14.6668 149.875 14.6668C148.342 14.6668 147.064 15.753 146.767 17.1977C144.2 17.473 142.196 19.6498 142.196 22.2879C142.196 22.2939 142.196 22.2984 142.196 22.3043C139.404 22.4218 136.855 23.2164 134.832 24.4707C134.08 23.8889 133.137 23.5423 132.113 23.5423C129.657 23.5423 127.666 25.5331 127.666 27.9897C127.666 29.7722 128.714 31.3077 130.227 32.0175C130.374 37.1806 136 41.3334 142.92 41.3334C149.841 41.3334 155.474 37.1761 155.614 32.0086C157.115 31.2943 158.154 29.7633 158.154 27.9912C158.154 25.5346 156.163 23.5437 153.706 23.5437V23.5408Z" fill="white"/>
<rect x="78.3327" y="1.66667" width="52.6665" height="52.6665" rx="26.3333" fill="#FFCD6B"/>
<rect x="78.3327" y="1.66667" width="52.6665" height="52.6665" rx="26.3333" stroke="white" stroke-width="2.66666"/>
<g clip-path="url(#clip3_4266_3992)">
<path d="M98.7291 13.7669C97.204 13.8389 96.1626 14.0823 95.2521 14.44C94.3098 14.8072 93.5112 15.3 92.7165 16.0975C91.9219 16.895 91.4326 17.6943 91.0679 18.638C90.715 19.5504 90.476 20.5927 90.4086 22.1187C90.3412 23.6446 90.3263 24.1351 90.3338 28.0274C90.3412 31.9198 90.3584 32.4077 90.4324 33.9368C90.5052 35.4615 90.7477 36.5027 91.1055 37.4134C91.4733 38.3557 91.9655 39.1541 92.7633 39.949C93.5611 40.7439 94.3597 41.2321 95.3057 41.5973C96.2173 41.9496 97.2599 42.1899 98.7855 42.2567C100.311 42.3235 100.802 42.3389 104.693 42.3315C108.585 42.324 109.075 42.3068 110.603 42.2343C112.132 42.1618 113.168 41.9175 114.079 41.5615C115.021 41.1928 115.82 40.7015 116.614 39.9034C117.409 39.1053 117.898 38.3055 118.262 37.3613C118.615 36.4497 118.855 35.4071 118.922 33.8826C118.988 32.3526 119.004 31.8642 118.997 27.9724C118.989 24.0806 118.972 23.5927 118.899 22.0642C118.827 20.5357 118.584 19.4977 118.226 18.5864C117.858 17.6441 117.366 16.8463 116.569 16.0508C115.771 15.2553 114.971 14.7665 114.027 14.403C113.115 14.0502 112.073 13.8096 110.547 13.7437C109.022 13.6778 108.53 13.6609 104.638 13.6683C100.745 13.6758 100.258 13.6924 98.7291 13.7669ZM98.8965 39.6781C97.499 39.6173 96.7402 39.3851 96.2345 39.1908C95.5649 38.9328 95.0878 38.6209 94.5839 38.1218C94.0799 37.6227 93.7703 37.144 93.5089 36.4758C93.3125 35.9701 93.076 35.2121 93.0107 33.8146C92.9396 32.3042 92.9247 31.8507 92.9163 28.024C92.908 24.1973 92.9227 23.7443 92.9889 22.2333C93.0485 20.837 93.2821 20.0773 93.4762 19.5719C93.7342 18.9014 94.045 18.4253 94.5452 17.9216C95.0454 17.4179 95.5227 17.1077 96.1915 16.8463C96.6966 16.6491 97.4546 16.4146 98.8515 16.3481C100.363 16.2764 100.816 16.2621 104.642 16.2538C108.468 16.2454 108.922 16.2598 110.435 16.3263C111.831 16.3871 112.591 16.6184 113.096 16.8136C113.766 17.0716 114.242 17.3815 114.746 17.8826C115.25 18.3837 115.56 18.8593 115.822 19.5295C116.019 20.0332 116.254 20.7908 116.319 22.1886C116.391 23.7002 116.408 24.1534 116.415 27.9793C116.422 31.8051 116.408 32.2595 116.342 33.7699C116.281 35.1674 116.049 35.9265 115.855 36.4328C115.597 37.1021 115.285 37.5794 114.785 38.0828C114.284 38.5862 113.808 38.8964 113.139 39.1578C112.634 39.3547 111.875 39.5898 110.48 39.6563C108.968 39.7274 108.515 39.7423 104.687 39.7506C100.86 39.7589 100.408 39.7435 98.8968 39.6781M110.581 20.3393C110.582 20.6795 110.683 21.0119 110.873 21.2945C111.062 21.577 111.331 21.797 111.646 21.9267C111.96 22.0563 112.306 22.0898 112.64 22.0228C112.973 21.9558 113.28 21.7914 113.52 21.5504C113.76 21.3094 113.923 21.0026 113.989 20.6688C114.055 20.335 114.02 19.9893 113.889 19.6752C113.758 19.3611 113.537 19.0929 113.254 18.9045C112.971 18.716 112.638 18.6158 112.298 18.6165C111.842 18.6174 111.405 18.7994 111.083 19.1225C110.761 19.4455 110.581 19.8833 110.581 20.3393ZM97.3058 28.0142C97.3138 32.0792 100.615 35.3669 104.679 35.3592C108.743 35.3514 112.033 32.0505 112.026 27.9856C112.018 23.9206 108.716 20.632 104.651 20.64C100.586 20.6481 97.298 23.9499 97.3058 28.0142ZM99.8875 28.0091C99.8856 27.0641 100.164 26.1398 100.687 25.353C101.211 24.5663 101.956 23.9524 102.828 23.5891C103.701 23.2257 104.661 23.1292 105.588 23.3117C106.515 23.4942 107.368 23.9476 108.037 24.6145C108.707 25.2814 109.163 26.1318 109.35 27.0582C109.536 27.9847 109.443 28.9455 109.083 29.8193C108.723 30.693 108.112 31.4404 107.328 31.967C106.543 32.4936 105.62 32.7756 104.675 32.7775C104.047 32.7788 103.426 32.6565 102.846 32.4176C102.265 32.1786 101.738 31.8277 101.293 31.3849C100.849 30.9421 100.496 30.4161 100.255 29.8369C100.013 29.2576 99.8887 28.6365 99.8875 28.0091Z" fill="white"/>
</g>
<rect x="40.0007" y="1.66667" width="52.6665" height="52.6665" rx="26.3333" fill="#595FFF"/>
<rect x="40.0007" y="1.66667" width="52.6665" height="52.6665" rx="26.3333" stroke="white" stroke-width="2.66666"/>
<g clip-path="url(#clip4_4266_3992)">
<path d="M75.0978 19.2849C73.5533 18.2797 72.4394 16.6705 72.0914 14.7958C72.0166 14.3908 71.9749 13.9736 71.9749 13.5471H67.0464L67.0385 33.2701C66.9558 35.4787 65.1351 37.2516 62.9038 37.2516C62.2099 37.2516 61.557 37.0785 60.9818 36.7762C59.663 36.0833 58.7605 34.7033 58.7605 33.115C58.7605 30.8338 60.6193 28.9777 62.9031 28.9777C63.3295 28.9777 63.7387 29.048 64.1255 29.1686V24.1446C63.725 24.09 63.318 24.0562 62.9031 24.0562C57.9013 24.0562 53.832 28.1196 53.832 33.115C53.832 36.1795 55.3651 38.8916 57.7049 40.5315C59.1783 41.5648 60.971 42.173 62.9038 42.173C67.9057 42.173 71.9749 38.1096 71.9749 33.115V23.1135C73.9078 24.4986 76.2764 25.315 78.832 25.315V20.3935C77.4557 20.3935 76.1736 19.985 75.0978 19.2849Z" fill="white"/>
</g>
<g clip-path="url(#clip5_4266_3992)">
<rect x="3" y="3" width="49.9999" height="49.9999" rx="24.9999" fill="#FF2C6B"/>
<path d="M37.3193 35.1277L38.4277 27.9011H31.4941V23.2116C31.4941 21.2345 32.4626 19.3074 35.5682 19.3074H38.7207V13.1551C38.7207 13.1551 35.8597 12.6668 33.1245 12.6668C27.4139 12.6668 23.6816 16.1277 23.6816 22.3933V27.9011H17.334V35.1277H23.6816V52.5974C24.9544 52.7971 26.259 52.9011 27.5879 52.9011C28.9168 52.9011 30.2213 52.7971 31.4941 52.5974V35.1277H37.3193Z" fill="white"/>
</g>
<rect x="1.66667" y="1.66667" width="52.6665" height="52.6665" rx="26.3333" stroke="white" stroke-width="2.66666"/>
<defs>
<clipPath id="clip0_4266_3992">
<rect width="34.1024" height="23.9442" fill="white" transform="translate(241.098 16.0209)"/>
</clipPath>
<clipPath id="clip1_4266_3992">
<rect width="29.8799" height="26.9999" fill="white" transform="translate(204.666 14.6668)"/>
</clipPath>
<clipPath id="clip2_4266_3992">
<rect width="34.7237" height="29.3122" fill="white" transform="translate(166.205 14.6107)"/>
</clipPath>
<clipPath id="clip3_4266_3992">
<rect width="28.6666" height="28.6666" fill="white" transform="translate(90.332 13.6665)"/>
</clipPath>
<clipPath id="clip4_4266_3992">
<rect width="24.9999" height="28.6259" fill="white" transform="translate(53.832 13.5471)"/>
</clipPath>
<clipPath id="clip5_4266_3992">
<rect x="3" y="3" width="49.9999" height="49.9999" rx="24.9999" fill="white"/>
</clipPath>
</defs>
</svg>
