<svg width="120" height="20" viewBox="0 0 120 20" fill="none" xmlns="http://www.w3.org/2000/svg">
<g clip-path="url(#clip0_3863_963)">
<g clip-path="url(#clip1_3863_963)">
<g clip-path="url(#clip2_3863_963)">
<mask id="mask0_3863_963" style="mask-type:luminance" maskUnits="userSpaceOnUse" x="0" y="0" width="8" height="8">
<path d="M0.0136719 0.189062H7.21325V7.38864H0.0136719V0.189062Z" fill="white"/>
</mask>
<g mask="url(#mask0_3863_963)">
<path d="M3.61346 0.189062C3.13761 0.189062 2.67628 0.279875 2.23675 0.461498C1.79359 0.646755 1.40491 0.904661 1.06709 1.24248C0.729271 1.5803 0.471365 1.96898 0.286108 2.41214C0.104484 2.85167 0.0136719 3.30936 0.0136719 3.78885C0.0136719 4.26471 0.104484 4.72603 0.286108 5.16556C0.471365 5.60873 0.729271 5.9974 1.06709 6.33522C1.40491 6.67304 1.79359 6.93095 2.23675 7.11257C2.67628 7.29783 3.13761 7.38864 3.61346 7.38864C4.08932 7.38864 4.55064 7.29783 4.99017 7.11257C5.43334 6.93095 5.82201 6.67304 6.15983 6.33522C6.49765 5.9974 6.75556 5.60873 6.94082 5.16556C7.12244 4.72603 7.21325 4.26471 7.21325 3.78885C7.21325 3.30936 7.12244 2.85167 6.94082 2.41214C6.75556 1.96898 6.49765 1.5803 6.15983 1.24248C5.82201 0.904661 5.43334 0.646755 4.99017 0.461498C4.55064 0.279875 4.08932 0.189062 3.61346 0.189062Z" fill="#FF1616"/>
</g>
<mask id="mask1_3863_963" style="mask-type:luminance" maskUnits="userSpaceOnUse" x="15" y="0" width="8" height="8">
<path d="M15.2148 0.189128H22.4144V7.38871H15.2148V0.189128Z" fill="white"/>
</mask>
<g mask="url(#mask1_3863_963)">
<path d="M18.8146 0.189128C18.3388 0.189128 17.8775 0.27994 17.4379 0.461564C16.9984 0.646821 16.6061 0.904727 16.2719 1.24255C15.9341 1.58037 15.6725 1.96904 15.4909 2.41221C15.3057 2.85174 15.2148 3.30943 15.2148 3.78892C15.2148 4.26477 15.3057 4.7261 15.4909 5.16563C15.6725 5.60879 15.9341 5.99747 16.2719 6.33529C16.6061 6.67311 16.9984 6.93101 17.4379 7.11264C17.8775 7.2979 18.3388 7.38871 18.8146 7.38871C19.2941 7.38871 19.7518 7.2979 20.1913 7.11264C20.6345 6.93101 21.0232 6.67311 21.361 6.33529C21.6988 5.99747 21.9604 5.60879 22.142 5.16563C22.3236 4.7261 22.4144 4.26477 22.4144 3.78892C22.4144 3.30943 22.3236 2.85174 22.142 2.41221C21.9604 1.96904 21.6988 1.58037 21.361 1.24255C21.0232 0.904727 20.6345 0.646821 20.1913 0.461564C19.7518 0.27994 19.2941 0.189128 18.8146 0.189128Z" fill="#5E17EB"/>
</g>
<mask id="mask2_3863_963" style="mask-type:luminance" maskUnits="userSpaceOnUse" x="29" y="0" width="8" height="8">
<path d="M29.291 0.189128H36.4906V7.38871H29.291V0.189128Z" fill="white"/>
</mask>
<g mask="url(#mask2_3863_963)">
<path d="M32.8908 0.189128C32.4149 0.189128 31.9573 0.27994 31.5141 0.461564C31.0746 0.646821 30.6859 0.904727 30.3481 1.24255C30.0102 1.58037 29.7487 1.96904 29.5671 2.41221C29.3855 2.85174 29.291 3.30943 29.291 3.78892C29.291 4.26477 29.3855 4.7261 29.5671 5.16563C29.7487 5.60879 30.0102 5.99747 30.3481 6.33529C30.6859 6.67311 31.0746 6.93101 31.5141 7.11264C31.9573 7.2979 32.4149 7.38871 32.8908 7.38871C33.3703 7.38871 33.828 7.2979 34.2711 7.11264C34.7107 6.93101 35.0994 6.67311 35.4372 6.33529C35.775 5.99747 36.0365 5.60879 36.2182 5.16563C36.3998 4.7261 36.4906 4.26477 36.4906 3.78892C36.4906 3.30943 36.3998 2.85174 36.2182 2.41221C36.0365 1.96904 35.775 1.58037 35.4372 1.24255C35.0994 0.904727 34.7107 0.646821 34.2711 0.461564C33.828 0.27994 33.3703 0.189128 32.8908 0.189128Z" fill="#FFDE59"/>
</g>
<path d="M5.27532 19.8845H3.58984V9.90244H5.27532V19.8845Z" fill="#5E17EB"/>
<path d="M24.7167 19.8845H23.162L23.1475 12.4306L19.9945 18.8383H18.9047L15.7517 12.4306V19.8845H14.168V9.90244H16.1731L19.4569 16.5281L22.7406 9.90244H24.7167V19.8845Z" fill="#5E17EB"/>
<path d="M33.625 9.90244H37.6062C38.8558 9.90244 39.822 10.2039 40.5122 10.8033C41.2096 11.3954 41.5583 12.2345 41.5583 13.317C41.5583 14.443 41.2096 15.3185 40.5122 15.9469C39.822 16.568 38.8558 16.8768 37.6062 16.8768H35.3105V19.8845H33.625V9.90244ZM35.3105 11.4136V15.3657H37.5336C39.1391 15.3657 39.9455 14.6973 39.9455 13.3606C39.9455 12.0638 39.1391 11.4136 37.5336 11.4136H35.3105Z" fill="#5E17EB"/>
<path d="M56.6244 11.4136H51.1757V14.1161H56.0578V15.6272H51.1757V18.3734H56.7988V19.8845H49.4902V9.90244H56.6244V11.4136Z" fill="#5E17EB"/>
<path d="M71.4483 19.8845L69.6176 16.8623C69.5195 16.8732 69.3706 16.8768 69.1671 16.8768H66.7988V19.8845H65.1133V9.90244H69.1671C70.4349 9.90244 71.4193 10.2039 72.1167 10.8033C72.8214 11.3954 73.1774 12.2345 73.1774 13.317C73.1774 14.1125 72.9958 14.7845 72.6398 15.3366C72.2911 15.8888 71.7825 16.292 71.1141 16.5426L73.3518 19.8845H71.4483ZM66.7988 15.3657H69.1671C70.7836 15.3657 71.5936 14.6973 71.5936 13.3606C71.5936 12.0638 70.7836 11.4136 69.1671 11.4136H66.7988V15.3657Z" fill="#5E17EB"/>
<path d="M83.3769 19.8845H81.6914V9.90244H83.3769V19.8845Z" fill="#5E17EB"/>
<path d="M100.754 9.90244V15.758C100.754 17.0584 100.366 18.0828 99.5921 18.8383C98.8256 19.5866 97.7649 19.9572 96.41 19.9572C95.0623 19.9572 94.0017 19.5866 93.2279 18.8383C92.4615 18.0828 92.0801 17.0584 92.0801 15.758V9.90244H93.751V15.758C93.751 16.5935 93.9871 17.251 94.463 17.7341C94.9461 18.2099 95.6036 18.446 96.4391 18.446C97.2527 18.446 97.892 18.2099 98.357 17.7341C98.8292 17.2619 99.069 16.6007 99.069 15.758V9.90244H100.754Z" fill="#5E17EB"/>
<path d="M119.98 19.8845H118.426L118.411 12.4306L115.258 18.8383H114.168L111.015 12.4306V19.8845H109.432V9.90244H111.437L114.721 16.5281L118.004 9.90244H119.98V19.8845Z" fill="#5E17EB"/>
</g>
</g>
</g>
<defs>
<clipPath id="clip0_3863_963">
<rect width="120" height="19.77" fill="white" transform="translate(0 0.190001)"/>
</clipPath>
<clipPath id="clip1_3863_963">
<rect width="120" height="19.77" fill="white" transform="translate(0 0.190001)"/>
</clipPath>
<clipPath id="clip2_3863_963">
<rect width="119.968" height="19.77" fill="white" transform="translate(0.015625 0.190001)"/>
</clipPath>
</defs>
</svg>
