<svg width="24" height="25" viewBox="0 0 24 25" fill="none" xmlns="http://www.w3.org/2000/svg">
<path d="M20 13.2498C20 18.2498 16.5 20.7498 12.34 22.1998C12.1222 22.2737 11.8855 22.2701 11.67 22.1898C7.5 20.7498 4 18.2498 4 13.2498V6.24984C4 5.98462 4.10536 5.73027 4.29289 5.54273C4.48043 5.3552 4.73478 5.24984 5 5.24984C7 5.24984 9.5 4.04984 11.24 2.52984C11.4519 2.34884 11.7214 2.24939 12 2.24939C12.2786 2.24939 12.5481 2.34884 12.76 2.52984C14.51 4.05984 17 5.24984 19 5.24984C19.2652 5.24984 19.5196 5.3552 19.7071 5.54273C19.8946 5.73027 20 5.98462 20 6.24984V13.2498Z" stroke="white" stroke-width="2" stroke-linecap="round" stroke-linejoin="round"/>
<path d="M6.37695 19.1599C6.80367 18.012 7.57137 17.0223 8.57698 16.3235C9.58258 15.6247 10.7779 15.2503 12.0025 15.2506C13.2271 15.2509 14.4222 15.626 15.4274 16.3253C16.4327 17.0246 17.1999 18.0148 17.626 19.1629" stroke="white" stroke-width="2" stroke-linecap="round" stroke-linejoin="round"/>
<path d="M12 15.2499C14.2091 15.2499 16 13.459 16 11.2499C16 9.04074 14.2091 7.24988 12 7.24988C9.79086 7.24988 8 9.04074 8 11.2499C8 13.459 9.79086 15.2499 12 15.2499Z" stroke="white" stroke-width="2" stroke-linecap="round" stroke-linejoin="round"/>
</svg>
