<svg width="24" height="25" viewBox="0 0 24 25" fill="none" xmlns="http://www.w3.org/2000/svg">
<path d="M18 8.24988C19.6569 8.24988 21 6.90673 21 5.24988C21 3.59302 19.6569 2.24988 18 2.24988C16.3431 2.24988 15 3.59302 15 5.24988C15 6.90673 16.3431 8.24988 18 8.24988Z" stroke="white" stroke-width="2" stroke-linecap="round" stroke-linejoin="round"/>
<path d="M6 15.2499C7.65685 15.2499 9 13.9067 9 12.2499C9 10.593 7.65685 9.24988 6 9.24988C4.34315 9.24988 3 10.593 3 12.2499C3 13.9067 4.34315 15.2499 6 15.2499Z" stroke="white" stroke-width="2" stroke-linecap="round" stroke-linejoin="round"/>
<path d="M18 22.2499C19.6569 22.2499 21 20.9067 21 19.2499C21 17.593 19.6569 16.2499 18 16.2499C16.3431 16.2499 15 17.593 15 19.2499C15 20.9067 16.3431 22.2499 18 22.2499Z" stroke="white" stroke-width="2" stroke-linecap="round" stroke-linejoin="round"/>
<path d="M8.58984 13.7599L15.4198 17.7399" stroke="white" stroke-width="2" stroke-linecap="round" stroke-linejoin="round"/>
<path d="M15.4098 6.75989L8.58984 10.7399" stroke="white" stroke-width="2" stroke-linecap="round" stroke-linejoin="round"/>
</svg>
