<svg width="24" height="25" viewBox="0 0 24 25" fill="none" xmlns="http://www.w3.org/2000/svg">
<path d="M3 11.2499L21 6.24988V18.2499L3 14.2499V11.2499Z" stroke="white" stroke-width="2" stroke-linecap="round" stroke-linejoin="round"/>
<path d="M11.5997 17.0498C11.4947 17.4307 11.3156 17.7871 11.0728 18.0987C10.83 18.4104 10.5282 18.6711 10.1847 18.8661C9.84108 19.0611 9.46245 19.1865 9.07041 19.2352C8.67836 19.2839 8.28056 19.2549 7.89973 19.1498C7.51889 19.0448 7.16248 18.8657 6.85084 18.6229C6.5392 18.3801 6.27844 18.0783 6.08343 17.7348C5.88843 17.3912 5.76301 17.0126 5.71433 16.6205C5.66565 16.2285 5.69467 15.8307 5.79973 15.4498" stroke="white" stroke-width="2" stroke-linecap="round" stroke-linejoin="round"/>
</svg>
